<svg id="Layer_1" data-name="Layer 1" xmlns="http://www.w3.org/2000/svg" viewBox="0 0 538.5 245.6">
  <defs>
    <style>
      .cls-1, .cls-3 {
        fill: none;
        stroke-width: 2px;
      }

      .cls-1 {
        stroke: #020202;
        stroke-miterlimit: 10;
      }

      .cls-2 {
        isolation: isolate;
        font-size: 16px;
        font-family: ArialMT, Arial;
      }

      .cls-3 {
        stroke: #231f20;
        stroke-linecap: round;
        stroke-linejoin: round;
      }
    </style>
  </defs>
  <title>Marquise</title>
  <g id="lines">
    <line class="cls-1" x1="146.3" y1="48.9" x2="401.4" y2="48.9"/>
    <line class="cls-1" x1="146.3" y1="46.3" x2="146.3" y2="51.4"/>
    <line class="cls-1" x1="402" y1="46.1" x2="402" y2="51.5"/>
    <g>
      <line class="cls-1" x1="86.5" y1="21" x2="445" y2="21"/>
      <line class="cls-1" x1="445.2" y1="17" x2="445.2" y2="24.6"/>
      <line class="cls-1" x1="86.4" y1="17" x2="86.4" y2="24.5"/>
    </g>
    <g>
      <line class="cls-1" x1="75.1" y1="54.7" x2="75.1" y2="216.2"/>
      <line class="cls-1" x1="73" y1="54.7" x2="77" y2="54.7"/>
      <line class="cls-1" x1="72.9" y1="216.4" x2="77" y2="216.4"/>
    </g>
    <g>
      <line class="cls-1" x1="470.8" y1="54.7" x2="470.8" y2="118.3"/>
      <line class="cls-1" x1="468.9" y1="54.7" x2="472.5" y2="54.7"/>
      <line class="cls-1" x1="468.8" y1="118.3" x2="472.5" y2="118.3"/>
    </g>
    <g>
      <line class="cls-1" x1="470.9" y1="124" x2="470.9" y2="215.7"/>
      <line class="cls-1" x1="468.8" y1="123.8" x2="472.9" y2="123.8"/>
      <line class="cls-1" x1="468.7" y1="215.8" x2="472.9" y2="215.8"/>
    </g>
    <g>
      <line class="cls-1" x1="444.7" y1="103.2" x2="465.5" y2="118.3"/>
      <line class="cls-1" x1="459.8" y1="118.3" x2="465.5" y2="118.3"/>
    </g>
    <line class="cls-1" x1="70" y1="114.6" x2="75.3" y2="118.2"/>
    <line class="cls-1" x1="70.3" y1="128.1" x2="75.1" y2="123.5"/>
    <g>
      <line class="cls-1" x1="444.7" y1="141.5" x2="465.5" y2="123.5"/>
      <line class="cls-1" x1="459.8" y1="123.5" x2="465.5" y2="123.5"/>
    </g>
  </g>
  <g id="text">
    <text class="cls-2" id="SVG_Culet_Size_percentages" data-rounding="1"  data-suffix="%" transform="translate(246.1 240.4)">0.0%</text>
    <text class="cls-2" id="SVG_Crown_angel-deg" data-rounding="1"  data-suffix="째" transform="translate(421.6 74.4)">0.0째</text>
    <text class="cls-2" id="SVG_Pavilion_angel-deg" data-rounding="1"  data-suffix="째" transform="translate(421.6 184.7)">0.0째</text>
    <g id="Pavillion">
      <text class="cls-2" id="SVG_Pavilion_height-percentages" data-rounding="1"  data-suffix="%" transform="translate(480.7 215.1)">0.0%</text>
      <text class="cls-2" id="SVG_Pavilion_height-mm" data-rounding="2"  data-suffix="mm" transform="translate(480.7 184.7)">0.00mm</text>
    </g>
    <g id="Crown">
      <text class="cls-2" id="SVG_Crown_height-mm" data-rounding="2"  data-suffix="mm" transform="translate(479.7 84)">0.00mm</text>
      <text class="cls-2" id="SVG_Crown_height-percentages" data-rounding="1"  data-suffix="%" transform="translate(479.7 66.3)">0.0%</text>
    </g>
    <g id="Total">
      <text class="cls-2" id="SVG_Total_Depth_mm" data-rounding="2"  data-suffix="mm" transform="translate(0 216.4)">0.00mm</text>
      <text class="cls-2" id="SVG_Total_Depth_percentages" data-rounding="1" data-suffix="%" transform="translate(0 192.1)">0.0%</text>
    </g>
    <g id="Girdle">
      <text class="cls-2" id="SVG_Girdle_Thickness-mm" data-rounding="2"  data-suffix="mm" transform="translate(0 147.6)">0.00mm</text>
      <text class="cls-2" id="SVG_Girdle_Thickness-percentages" data-rounding="1"  data-suffix="%" transform="translate(0 108.5)">0.0%</text>
    </g>
    <g id="Table">
      <text class="cls-2" id="SVG_Table_Size_percentages" data-rounding="0"  data-suffix="%" transform="translate(245.1 42.1)">0.0%</text>
      <text class="cls-2" id="SVG_Length_mm" data-rounding="2"  data-suffix="mm" transform="translate(238.8 13.7)">0.00mm</text>
    </g>
  </g>
  <g id="Marquise">
    <g>
      <rect class="cls-3" x="82.9" y="118.3" width="373.7" height="5.2"/>
      <polygon class="cls-3" points="146.8 79.8 403.7 79.8 426 92.1 456.5 118.3 456.5 123.5 269 216.1 82.9 123.5 82.9 118.3 121.5 92.1 146.8 79.8"/>
      <polyline class="cls-3" points="192 178.2 130.3 123.8 130.3 118.3 121.5 92.1 205.8 79.8 218 92.4 205.8 118.6 205.8 123.8 269 216.1"/>
      <polyline class="cls-3" points="347.4 177.4 410.1 123.8 410.1 118.3 425.1 91.9 334.7 79.8 322.5 92.4 334.7 118.6 334.7 123.8 269.6 215.8"/>
      <polyline class="cls-3" points="269.6 79.5 322.5 92.4 410.1 118.3 410.1 123.8 293.4 182.2 269.6 123.4 269.6 118.4 323.1 93.3"/>
      <polyline class="cls-3" points="269.4 79.5 216.6 92.4 128.9 118.3 128.9 123.8 245.6 182.2 269.6 123.4 269.6 118.4 215.9 93.3"/>
    </g>
  </g>
</svg>
