<?xml version="1.0" encoding="utf-8"?>
<!-- Generator: Adobe Illustrator 18.1.1, SVG Export Plug-In . SVG Version: 6.00 Build 0)  -->
<svg version="1.1" id="Layer_1" xmlns="http://www.w3.org/2000/svg" xmlns:xlink="http://www.w3.org/1999/xlink" x="0px" y="0px"
	 viewBox="0 0 1152 576" enable-background="new 0 0 1152 576" xml:space="preserve">
<g>
	<path id="svg_3" fill="#FFFFFF" stroke="#0D0A0A" stroke-miterlimit="10" d="M792.1587524,150.5133057"/>
	
		<line id="svg_4" fill="none" stroke="#0D0A0A" stroke-width="4" stroke-linecap="round" stroke-linejoin="round" stroke-miterlimit="10" x1="792.1587524" y1="150.5133057" x2="792.1587524" y2="150.5133057"/>
	
		<line id="svg_5" fill="none" stroke="#0D0A0A" stroke-miterlimit="10" x1="745.6757202" y1="120.7099762" x2="792.1587524" y2="150.5133057"/>
	
		<line id="svg_6" fill="none" stroke="#0D0A0A" stroke-width="4" stroke-linecap="round" stroke-linejoin="round" stroke-miterlimit="10" x1="745.6757202" y1="120.7099762" x2="792.1587524" y2="150.5133057"/>
	<path id="svg_7" fill="#FFFFFF" stroke="#0D0A0A" stroke-miterlimit="10" d="M886.2255249,248.4747772v-25.4005585V248.4747772z"/>
	
		<line id="svg_8" fill="none" stroke="#0D0A0A" stroke-width="4" stroke-linecap="round" stroke-linejoin="round" stroke-miterlimit="10" x1="886.2255249" y1="248.4747772" x2="886.2255249" y2="223.0742188"/>
	<polyline id="svg_9" fill="#FFFFFF" stroke="#0D0A0A" stroke-miterlimit="10" points="886.2255249,221.8041992 
		793.3441162,151.2753143 792.1587524,150.5133057 	"/>
	
		<polyline id="svg_10" fill="none" stroke="#0D0A0A" stroke-width="4" stroke-linecap="round" stroke-linejoin="round" stroke-miterlimit="10" points="
		886.2255249,221.8041992 793.3441162,151.2753143 792.1587524,150.5133057 	"/>
	<polyline id="svg_11" fill="#FFFFFF" stroke="#0D0A0A" stroke-miterlimit="10" points="654.5724487,453.8806458 
		886.2255249,248.8981323 886.2255249,248.4747772 	"/>
	
		<polyline id="svg_12" fill="none" stroke="#0D0A0A" stroke-width="4" stroke-linecap="round" stroke-linejoin="round" stroke-miterlimit="10" points="
		654.5724487,453.8806458 886.2255249,248.8981323 886.2255249,248.4747772 	"/>
	<polyline id="svg_13" fill="#FFFFFF" stroke="#0D0A0A" stroke-miterlimit="10" points="583.7894897,513.1486206 
		650.1696167,457.6907349 653.9797363,454.3886719 	"/>
	
		<polyline id="svg_14" fill="none" stroke="#0D0A0A" stroke-width="4" stroke-linecap="round" stroke-linejoin="round" stroke-miterlimit="10" points="
		583.7894897,513.1486206 650.1696167,457.6907349 653.9797363,454.3886719 	"/>
	<path id="svg_15" fill="#FFFFFF" stroke="#0D0A0A" stroke-miterlimit="10" d="M886.2255249,223.0742188v-1.2700195V223.0742188z"/>
	
		<line id="svg_16" fill="none" stroke="#0D0A0A" stroke-linecap="round" stroke-linejoin="round" stroke-miterlimit="10" x1="886.2255249" y1="221.8041992" x2="886.2255249" y2="223.0742188"/>
	<path id="svg_17" fill="#FFFFFF" stroke="#0D0A0A" stroke-miterlimit="10" d="M262.3031006,222.2275391v-0.8466797V222.2275391z"/>
	
		<line id="svg_18" fill="none" stroke="#0D0A0A" stroke-linecap="round" stroke-linejoin="round" stroke-miterlimit="10" x1="262.3031006" y1="221.3808594" x2="262.3031006" y2="222.2275391"/>
	<polyline id="svg_19" fill="#FFFFFF" stroke="#0D0A0A" stroke-miterlimit="10" points="262.3031006,221.3808594 
		342.822876,161.7742157 401.0748291,120.7946472 	"/>
	
		<polyline id="svg_20" fill="none" stroke="#0D0A0A" stroke-width="4" stroke-linecap="round" stroke-linejoin="round" stroke-miterlimit="10" points="
		262.3031006,221.3808594 342.822876,161.7742157 401.0748291,120.7946472 	"/>
	<path id="svg_21" fill="#FFFFFF" stroke="#0D0A0A" stroke-miterlimit="10" d="M262.3031006,244.8340454v-22.6911621V244.8340454z"
		/>
	
		<line id="svg_22" fill="none" stroke="#0D0A0A" stroke-width="4" stroke-linecap="round" stroke-linejoin="round" stroke-miterlimit="10" x1="262.3031006" y1="222.2275391" x2="262.3031006" y2="245.1727142"/>
	<polyline id="svg_23" fill="#FFFFFF" stroke="#0D0A0A" stroke-miterlimit="10" points="262.3031006,244.8340454 
		525.7069092,463.1941833 583.7894897,513.1486206 	"/>
	
		<polyline id="svg_24" fill="none" stroke="#0D0A0A" stroke-width="4" stroke-linecap="round" stroke-linejoin="round" stroke-miterlimit="10" points="
		262.3031006,245.1727142 525.7069092,463.1941833 583.7894897,513.1486206 	"/>
	<path id="svg_27" fill="#FFFFFF" stroke="#0D0A0A" stroke-miterlimit="10" d="M792.1587524,150.5133057"/>
	
		<line id="svg_28" fill="none" stroke="#0D0A0A" stroke-width="4" stroke-linecap="round" stroke-linejoin="round" stroke-miterlimit="10" x1="792.1587524" y1="150.5133057" x2="792.1587524" y2="150.5133057"/>
	<path id="svg_31" fill="#FFFFFF" stroke="#0D0A0A" stroke-miterlimit="10" d="M792.1587524,150.5133057"/>
	
		<line id="svg_32" fill="none" stroke="#0D0A0A" stroke-width="4" stroke-linecap="round" stroke-linejoin="round" stroke-miterlimit="10" x1="792.1587524" y1="150.5133057" x2="792.1587524" y2="150.5133057"/>
	<path id="svg_33" fill="#FFFFFF" stroke="#0D0A0A" stroke-miterlimit="10" d="M401.0748291,120.7946472l344.6008911-0.084671
		L401.0748291,120.7946472z"/>
	
		<line id="svg_34" fill="none" stroke="#0D0A0A" stroke-width="4" stroke-linecap="round" stroke-linejoin="round" stroke-miterlimit="10" x1="745.6757202" y1="120.7099762" x2="401.0748291" y2="120.7946472"/>
	<path id="svg_35" fill="none" stroke="#0D0A0A" stroke-linecap="round" stroke-linejoin="round" stroke-miterlimit="10" d="
		M401.0748291,120.7946472"/>
	
		<path id="svg_36" fill="none" stroke="#0D0A0A" stroke-width="4" stroke-linecap="round" stroke-linejoin="round" stroke-miterlimit="10" d="
		M355.3538208,153.138031"/>
	
		<path id="svg_37" fill="none" stroke="#0D0A0A" stroke-width="4" stroke-linecap="round" stroke-linejoin="round" stroke-miterlimit="10" d="
		M355.3538208,153.138031"/>
	<path id="svg_38" fill="none" stroke="#0D0A0A" stroke-linecap="round" stroke-linejoin="round" stroke-miterlimit="10" d="
		M262.3031006,221.3808594"/>
	<path id="svg_41" fill="#FFFFFF" stroke="#0D0A0A" stroke-miterlimit="10" d="M262.3031006,221.3808594
		c0,0,0,0.3386688,0,0.8466797"/>
	<path id="svg_42" fill="none" stroke="#0D0A0A" stroke-linecap="round" stroke-linejoin="round" stroke-miterlimit="10" d="
		M262.3031006,221.3808594c0,0,0,0.3386688,0,0.8466797"/>
	<path id="svg_43" fill="#FFFFFF" stroke="#0D0A0A" stroke-miterlimit="10" d="M289.5663757,225.4449463
		c-24.8925476,11.176239-27.1785889,0.084671-27.3479309-3.2174072"/>
	
		<path id="svg_44" fill="none" stroke="#0D0A0A" stroke-width="4" stroke-linecap="round" stroke-linejoin="round" stroke-miterlimit="10" d="
		M289.5663757,225.4449463c-24.8925476,11.176239-27.1785889,0.084671-27.3479309-3.2174072"/>
	<path id="svg_45" fill="#FFFFFF" stroke="#0D0A0A" stroke-miterlimit="10" d="M289.5663757,225.4449463
		c0,0,23.5378418,11.4302521,71.7142334-0.6773529"/>
	
		<path id="svg_46" fill="none" stroke="#0D0A0A" stroke-width="4" stroke-linecap="round" stroke-linejoin="round" stroke-miterlimit="10" d="
		M289.5663757,225.4449463c0,0,23.5378418,11.4302521,71.7142334-0.6773529"/>
	
		<line id="svg_47" fill="none" stroke="#0D0A0A" stroke-miterlimit="10" x1="289.5663757" y1="225.4449463" x2="355.3538208" y2="153.138031"/>
	
		<line id="svg_48" fill="none" stroke="#0D0A0A" stroke-width="4" stroke-linecap="round" stroke-linejoin="round" stroke-miterlimit="10" x1="289.5663757" y1="225.4449463" x2="355.3538208" y2="153.138031"/>
	
		<line id="svg_49" fill="none" stroke="#0D0A0A" stroke-miterlimit="10" x1="364.0746765" y1="221.2115173" x2="490.2307739" y2="154.1540527"/>
	
		<line id="svg_50" fill="none" stroke="#0D0A0A" stroke-width="4" stroke-linecap="round" stroke-linejoin="round" stroke-miterlimit="10" x1="361.2806091" y1="224.6829376" x2="490.2307739" y2="154.1540527"/>
	
		<line id="svg_51" fill="none" stroke="#0D0A0A" stroke-miterlimit="10" x1="355.3538208" y1="153.138031" x2="456.278717" y2="120.7946472"/>
	
		<line id="svg_52" fill="none" stroke="#0D0A0A" stroke-width="4" stroke-linecap="round" stroke-linejoin="round" stroke-miterlimit="10" x1="355.3538208" y1="153.138031" x2="456.278717" y2="120.7946472"/>
	
		<line id="svg_53" fill="none" stroke="#0D0A0A" stroke-miterlimit="10" x1="355.3538208" y1="153.138031" x2="364.0746765" y2="221.2115173"/>
	
		<line id="svg_54" fill="none" stroke="#0D0A0A" stroke-width="4" stroke-linecap="round" stroke-linejoin="round" stroke-miterlimit="10" x1="355.3538208" y1="153.138031" x2="361.2806091" y2="224.6829376"/>
	
		<line id="svg_55" fill="none" stroke="#0D0A0A" stroke-width="4" stroke-linecap="round" stroke-linejoin="round" stroke-miterlimit="10" x1="490.1461182" y1="154.2387085" x2="583.7894897" y2="120.7946472"/>
	
		<line id="svg_56" fill="none" stroke="#0D0A0A" stroke-miterlimit="10" x1="490.2307739" y1="154.1540527" x2="490.0614624" y2="153.9000397"/>
	
		<line id="svg_57" fill="none" stroke="#0D0A0A" stroke-width="4" stroke-linecap="round" stroke-linejoin="round" stroke-miterlimit="10" x1="490.2307739" y1="154.1540527" x2="490.0614624" y2="153.9000397"/>
	
		<line id="svg_58" fill="none" stroke="#0D0A0A" stroke-miterlimit="10" x1="490.0614624" y1="153.9000397" x2="456.278717" y2="120.7946472"/>
	
		<line id="svg_59" fill="none" stroke="#0D0A0A" stroke-width="4" stroke-linecap="round" stroke-linejoin="round" stroke-miterlimit="10" x1="490.0614624" y1="153.9000397" x2="456.278717" y2="120.7946472"/>
	
		<line id="svg_60" fill="none" stroke="#0D0A0A" stroke-width="4" stroke-linecap="round" stroke-linejoin="round" stroke-miterlimit="10" x1="490.2307739" y1="154.1540527" x2="583.7894897" y2="222.989563"/>
	<polyline id="svg_61" fill="#FFFFFF" stroke="#0D0A0A" stroke-miterlimit="10" points="672.1834717,149.7512817 
		671.8447876,150.5979767 584.5515137,219.9414978 	"/>
	
		<line id="svg_62" fill="none" stroke="#0D0A0A" stroke-width="4" stroke-linecap="round" stroke-linejoin="round" stroke-miterlimit="10" x1="672.6068115" y1="148.819931" x2="583.7894897" y2="222.989563"/>
	<path id="svg_63" fill="#FFFFFF" stroke="#0D0A0A" stroke-miterlimit="10" d="M584.5515137,219.9414978"/>
	
		<path id="svg_64" fill="none" stroke="#0D0A0A" stroke-width="4" stroke-linecap="round" stroke-linejoin="round" stroke-miterlimit="10" d="
		M584.5515137,219.9414978"/>
	
		<line id="svg_65" fill="none" stroke="#0D0A0A" stroke-miterlimit="10" x1="672.1834717" y1="149.7512817" x2="672.6068115" y2="148.819931"/>
	
		<line id="svg_66" fill="none" stroke="#0D0A0A" stroke-width="4" stroke-linecap="round" stroke-linejoin="round" stroke-miterlimit="10" x1="672.6068115" y1="148.819931" x2="583.7894897" y2="120.7946472"/>
	<path id="svg_67" fill="#FFFFFF" stroke="#0D0A0A" stroke-miterlimit="10" d="M583.7894897,222.989563
		c-53.7645264,11.176239-116.6732178-1.8627014-116.6732178-1.8627014"/>
	
		<path id="svg_68" fill="none" stroke="#0D0A0A" stroke-width="4" stroke-linecap="round" stroke-linejoin="round" stroke-miterlimit="10" d="
		M583.7894897,222.989563c-53.7645264,11.176239-116.6732178-1.8627014-116.6732178-1.8627014"/>
	<path id="svg_69" fill="#FFFFFF" stroke="#0D0A0A" stroke-miterlimit="10" d="M583.7894897,222.989563"/>
	<path id="svg_70" fill="#FFFFFF" stroke="#0D0A0A" stroke-miterlimit="10" d="M361.2806091,224.6829376
		c55.6272278,9.1441956,105.8356628-3.556076,105.8356628-3.556076"/>
	
		<path id="svg_71" fill="none" stroke="#0D0A0A" stroke-width="4" stroke-linecap="round" stroke-linejoin="round" stroke-miterlimit="10" d="
		M361.2806091,224.6829376c55.6272278,9.1441956,105.8356628-3.556076,105.8356628-3.556076"/>
	
		<line id="svg_72" fill="none" stroke="#0D0A0A" stroke-miterlimit="10" x1="361.2806091" y1="224.6829376" x2="364.0746765" y2="221.2115173"/>
	
		<line id="svg_73" fill="none" stroke="#0D0A0A" stroke-width="4" stroke-linecap="round" stroke-linejoin="round" stroke-miterlimit="10" x1="490.2307739" y1="154.1540527" x2="467.116272" y2="221.2115173"/>
	<path id="svg_74" fill="#FFFFFF" stroke="#0D0A0A" stroke-miterlimit="10" d="M583.7894897,222.989563
		c74.2543335,12.4462738,121.6687012-3.0480652,121.6687012-3.0480652"/>
	
		<path id="svg_75" fill="none" stroke="#0D0A0A" stroke-width="4" stroke-linecap="round" stroke-linejoin="round" stroke-miterlimit="10" d="
		M583.7894897,222.989563c74.2543335,12.4462738,121.6687012-3.0480652,121.6687012-3.0480652"/>
	<path id="svg_76" fill="#FFFFFF" stroke="#0D0A0A" stroke-miterlimit="10" d="M705.4581909,219.9414978
		c57.7439575,13.7162933,96.5220947-1.1006927,96.5220947-1.1006927"/>
	
		<path id="svg_77" fill="none" stroke="#0D0A0A" stroke-width="4" stroke-linecap="round" stroke-linejoin="round" stroke-miterlimit="10" d="
		M705.4581909,219.9414978c57.7439575,13.7162933,96.5220947-1.1006927,96.5220947-1.1006927"/>
	
		<line id="svg_78" fill="none" stroke="#0D0A0A" stroke-width="4" stroke-linecap="round" stroke-linejoin="round" stroke-miterlimit="10" x1="672.6068115" y1="148.819931" x2="705.4581909" y2="219.9414978"/>
	
		<line id="svg_79" fill="none" stroke="#0D0A0A" stroke-miterlimit="10" x1="672.6068115" y1="148.819931" x2="703.3414917" y2="120.7946472"/>
	
		<line id="svg_80" fill="none" stroke="#0D0A0A" stroke-width="4" stroke-linecap="round" stroke-linejoin="round" stroke-miterlimit="10" x1="672.6068115" y1="148.819931" x2="703.3414917" y2="120.7946472"/>
	
		<line id="svg_81" fill="none" stroke="#0D0A0A" stroke-miterlimit="10" x1="672.6068115" y1="148.819931" x2="801.9802856" y2="218.756134"/>
	
		<line id="svg_82" fill="none" stroke="#0D0A0A" stroke-width="4" stroke-linecap="round" stroke-linejoin="round" stroke-miterlimit="10" x1="672.6068115" y1="148.819931" x2="801.9802856" y2="218.756134"/>
	<path id="svg_83" fill="#FFFFFF" stroke="#0D0A0A" stroke-miterlimit="10" d="M792.1587524,150.5133057"/>
	
		<line id="svg_84" fill="none" stroke="#0D0A0A" stroke-width="4" stroke-linecap="round" stroke-linejoin="round" stroke-miterlimit="10" x1="792.1587524" y1="150.5133057" x2="792.1587524" y2="150.5133057"/>
	
		<line id="svg_85" fill="none" stroke="#0D0A0A" stroke-miterlimit="10" x1="792.1587524" y1="150.5133057" x2="703.3414917" y2="120.7946472"/>
	
		<line id="svg_86" fill="none" stroke="#0D0A0A" stroke-width="4" stroke-linecap="round" stroke-linejoin="round" stroke-miterlimit="10" x1="792.1587524" y1="150.5133057" x2="703.3414917" y2="120.7946472"/>
	<path id="svg_87" fill="#FFFFFF" stroke="#0D0A0A" stroke-miterlimit="10" d="M801.9802856,218.756134
		c0,0,43.3503418,15.8330231,60.2839966,5.5034637"/>
	
		<path id="svg_88" fill="none" stroke="#0D0A0A" stroke-width="4" stroke-linecap="round" stroke-linejoin="round" stroke-miterlimit="10" d="
		M801.9802856,218.756134c0,0,43.3503418,15.8330231,60.2839966,5.5034637"/>
	
		<line id="svg_89" fill="none" stroke="#0D0A0A" stroke-miterlimit="10" x1="792.1587524" y1="150.5133057" x2="801.9802856" y2="218.756134"/>
	
		<line id="svg_90" fill="none" stroke="#0D0A0A" stroke-width="4" stroke-linecap="round" stroke-linejoin="round" stroke-miterlimit="10" x1="792.1587524" y1="150.5133057" x2="801.9802856" y2="218.756134"/>
	<path id="svg_91" fill="#FFFFFF" stroke="#0D0A0A" stroke-miterlimit="10" d="M792.1587524,150.5133057"/>
	
		<line id="svg_92" fill="none" stroke="#0D0A0A" stroke-width="4" stroke-linecap="round" stroke-linejoin="round" stroke-miterlimit="10" x1="792.1587524" y1="150.5133057" x2="792.1587524" y2="150.5133057"/>
	<path id="svg_93" fill="#FFFFFF" stroke="#0D0A0A" stroke-miterlimit="10" d="M792.1587524,150.5133057"/>
	
		<line id="svg_94" fill="none" stroke="#0D0A0A" stroke-width="4" stroke-linecap="round" stroke-linejoin="round" stroke-miterlimit="10" x1="792.1587524" y1="150.5133057" x2="792.1587524" y2="150.5133057"/>
	<path id="svg_95" fill="#FFFFFF" stroke="#0D0A0A" stroke-miterlimit="10" d="M862.2642822,224.2595978
		c20.5744629,7.3661499,23.6225586,1.5240326,23.9612427-1.2700348"/>
	
		<path id="svg_96" fill="none" stroke="#0D0A0A" stroke-width="4" stroke-linecap="round" stroke-linejoin="round" stroke-miterlimit="10" d="
		M862.2642822,224.2595978c20.5744629,7.3661499,23.6225586,1.5240326,23.9612427-1.2700348"/>
	<path id="svg_97" fill="#FFFFFF" stroke="#0D0A0A" stroke-miterlimit="10" d="M792.1587524,150.5133057"/>
	
		<line id="svg_98" fill="none" stroke="#0D0A0A" stroke-width="4" stroke-linecap="round" stroke-linejoin="round" stroke-miterlimit="10" x1="792.1587524" y1="150.5133057" x2="792.1587524" y2="150.5133057"/>
	
		<line id="svg_99" fill="none" stroke="#0D0A0A" stroke-miterlimit="10" x1="862.2642822" y1="224.2595978" x2="792.1587524" y2="150.5133057"/>
	
		<line id="svg_100" fill="none" stroke="#0D0A0A" stroke-width="4" stroke-linecap="round" stroke-linejoin="round" stroke-miterlimit="10" x1="862.2642822" y1="224.2595978" x2="792.1587524" y2="150.5133057"/>
	<path id="svg_101" fill="#FFFFFF" stroke="#0D0A0A" stroke-miterlimit="10" d="M863.9577026,250.2528229
		c19.3890991-8.8901825,21.9291382-3.7254028,22.2678223-1.7780457"/>
	
		<path id="svg_102" fill="none" stroke="#0D0A0A" stroke-width="4" stroke-linecap="round" stroke-linejoin="round" stroke-miterlimit="10" d="
		M863.9577026,250.2528229c19.3890991-8.8901825,21.9291382-3.7254028,22.2678223-1.7780457"/>
	
		<line id="svg_103" fill="none" stroke="#0D0A0A" stroke-miterlimit="10" x1="863.9577026" y1="250.2528229" x2="653.9797363" y2="454.3886719"/>
	
		<line id="svg_104" fill="none" stroke="#0D0A0A" stroke-width="4" stroke-linecap="round" stroke-linejoin="round" stroke-miterlimit="10" x1="863.9577026" y1="250.2528229" x2="653.9797363" y2="454.3886719"/>
	<path id="svg_105" fill="#FFFFFF" stroke="#0D0A0A" stroke-miterlimit="10" d="M863.9577026,250.2528229
		c0,0-19.2197876-14.3936462-60.7919922-5.6727753"/>
	
		<path id="svg_106" fill="none" stroke="#0D0A0A" stroke-width="4" stroke-linecap="round" stroke-linejoin="round" stroke-miterlimit="10" d="
		M863.9577026,250.2528229c0,0-19.2197876-14.3936462-60.7919922-5.6727753"/>
	
		<line id="svg_107" fill="none" stroke="#0D0A0A" stroke-miterlimit="10" x1="803.0809937" y1="244.5800476" x2="653.9797363" y2="454.3886719"/>
	
		<line id="svg_108" fill="none" stroke="#0D0A0A" stroke-width="4" stroke-linecap="round" stroke-linejoin="round" stroke-miterlimit="10" x1="803.0809937" y1="244.5800476" x2="653.9797363" y2="454.3886719"/>
	
		<line id="svg_109" fill="none" stroke="#0D0A0A" stroke-width="4" stroke-linecap="round" stroke-linejoin="round" stroke-miterlimit="10" x1="607.2426758" y1="461.500824" x2="803.0809937" y2="244.5800476"/>
	<path id="svg_110" fill="#FFFFFF" stroke="#0D0A0A" stroke-miterlimit="10" d="M803.0809937,244.5800476
		c0,0-38.3548584-10.8375854-98.3848267,2.2860413"/>
	
		<path id="svg_111" fill="none" stroke="#0D0A0A" stroke-width="4" stroke-linecap="round" stroke-linejoin="round" stroke-miterlimit="10" d="
		M803.0809937,244.5800476c0,0-38.3548584-10.8375854-98.3848267,2.2860413"/>
	
		<line id="svg_112" fill="none" stroke="#0D0A0A" stroke-width="4" stroke-linecap="round" stroke-linejoin="round" stroke-miterlimit="10" x1="583.7894897" y1="513.1486206" x2="704.7808228" y2="246.8660889"/>
	<path id="svg_113" fill="#FFFFFF" stroke="#0D0A0A" stroke-miterlimit="10" d="M583.7894897,241.7859802
		c0,0,63.3320313-8.720871,120.9066772,5.0801086"/>
	
		<path id="svg_114" fill="none" stroke="#0D0A0A" stroke-width="4" stroke-linecap="round" stroke-linejoin="round" stroke-miterlimit="10" d="
		M583.7894897,241.7859802c0,0,63.3320313-8.720871,120.9066772,5.0801086"/>
	
		<line id="svg_115" fill="none" stroke="#0D0A0A" stroke-width="4" stroke-linecap="round" stroke-linejoin="round" stroke-miterlimit="10" x1="583.7894897" y1="241.7859802" x2="607.2426758" y2="461.500824"/>
	<path id="svg_116" fill="#FFFFFF" stroke="#0D0A0A" stroke-miterlimit="10" d="M583.7894897,241.7859802
		c0,0-39.1168823-9.9908905-117.6892395,5.9267883"/>
	
		<path id="svg_117" fill="none" stroke="#0D0A0A" stroke-width="4" stroke-linecap="round" stroke-linejoin="round" stroke-miterlimit="10" d="
		M583.7894897,241.7859802c0,0-39.1168823-9.9908905-117.6892395,5.9267883"/>
	
		<line id="svg_118" fill="none" stroke="#0D0A0A" stroke-miterlimit="10" x1="583.7894897" y1="241.7859802" x2="560.5056763" y2="461.500824"/>
	
		<line id="svg_119" fill="none" stroke="#0D0A0A" stroke-width="4" stroke-linecap="round" stroke-linejoin="round" stroke-miterlimit="10" x1="583.7894897" y1="241.7859802" x2="560.5056763" y2="461.500824"/>
	<path id="svg_120" fill="#FFFFFF" stroke="#0D0A0A" stroke-miterlimit="10" d="M466.1002502,247.7127686
		c0,0-59.2679749-11.26091-102.8722839-2.4553833"/>
	
		<path id="svg_121" fill="none" stroke="#0D0A0A" stroke-width="4" stroke-linecap="round" stroke-linejoin="round" stroke-miterlimit="10" d="
		M466.1002502,247.7127686c0,0-60.7920227-11.26091-104.3963013-2.4553833"/>
	
		<line id="svg_122" fill="none" stroke="#0D0A0A" stroke-miterlimit="10" x1="466.1002502" y1="247.7127686" x2="560.5056763" y2="461.500824"/>
	
		<line id="svg_123" fill="none" stroke="#0D0A0A" stroke-width="4" stroke-linecap="round" stroke-linejoin="round" stroke-miterlimit="10" x1="466.1002502" y1="247.7127686" x2="560.5056763" y2="461.500824"/>
	
		<path id="svg_124" fill="none" stroke="#0D0A0A" stroke-width="4" stroke-linecap="round" stroke-linejoin="round" stroke-miterlimit="10" d="
		M361.703949,245.2573853"/>
	
		<line id="svg_125" fill="none" stroke="#0D0A0A" stroke-miterlimit="10" x1="560.5056763" y1="461.500824" x2="583.7894897" y2="513.1486206"/>
	
		<line id="svg_126" fill="none" stroke="#0D0A0A" stroke-width="4" stroke-linecap="round" stroke-linejoin="round" stroke-miterlimit="10" x1="560.5056763" y1="461.500824" x2="583.7894897" y2="513.1486206"/>
	
		<line id="svg_127" fill="none" stroke="#0D0A0A" stroke-width="4" stroke-linecap="round" stroke-linejoin="round" stroke-miterlimit="10" x1="361.703949" y1="245.2573853" x2="560.5056763" y2="461.500824"/>
	
		<line id="svg_128" fill="none" stroke="#0D0A0A" stroke-miterlimit="10" x1="361.703949" y1="245.2573853" x2="524.9448853" y2="462.6015015"/>
	
		<line id="svg_129" fill="none" stroke="#0D0A0A" stroke-width="4" stroke-linecap="round" stroke-linejoin="round" stroke-miterlimit="10" x1="361.703949" y1="245.2573853" x2="524.9448853" y2="462.6015015"/>
	<path id="svg_130" fill="#FFFFFF" stroke="#0D0A0A" stroke-miterlimit="10" d="M361.703949,245.2573853
		c0,0-42.9269409-10.0755463-70.4442139,3.2174072"/>
	
		<path id="svg_131" fill="none" stroke="#0D0A0A" stroke-width="4" stroke-linecap="round" stroke-linejoin="round" stroke-miterlimit="10" d="
		M361.703949,245.2573853c0,0-42.9269409-10.0755463-70.4442139,3.2174072"/>
	<path id="svg_132" fill="#FFFFFF" stroke="#0D0A0A" stroke-miterlimit="10" d="M291.2597351,248.3901215
		c-26.0779114-13.9703064-29.0412903-3.556076-29.0412903-3.556076"/>
	
		<path id="svg_133" fill="none" stroke="#0D0A0A" stroke-width="4" stroke-linecap="round" stroke-linejoin="round" stroke-miterlimit="10" d="
		M291.2597351,248.3901215c-26.0779114-13.9703064-29.0412903-3.556076-29.0412903-3.556076"/>
	
		<line id="svg_134" fill="none" stroke="#0D0A0A" stroke-miterlimit="10" x1="291.2597351" y1="248.3901215" x2="524.9448853" y2="462.6015015"/>
	
		<line id="svg_135" fill="none" stroke="#0D0A0A" stroke-width="4" stroke-linecap="round" stroke-linejoin="round" stroke-miterlimit="10" x1="291.2597351" y1="248.3901215" x2="524.9448853" y2="462.6015015"/>
	
		<line id="svg_136" fill="none" stroke="#0D0A0A" stroke-width="2" stroke-linecap="round" stroke-linejoin="round" x1="255.6142883" y1="121.2179871" x2="255.6142883" y2="512.7252808"/>
	
		<rect id="svg_137" x="252.8202362" y="120.7946472" fill="#EF4966" stroke="#0D0A0A" stroke-miterlimit="10" width="5.5034542" height="0.8466853"/>
	
		<rect id="svg_138" x="252.8202362" y="512.3019409" fill="#EF4966" stroke="#0D0A0A" stroke-miterlimit="10" width="5.5034542" height="0.8466853"/>
	
		<line id="svg_139" fill="none" stroke="#0D0A0A" stroke-width="2" stroke-linecap="round" stroke-linejoin="round" x1="906.1226196" y1="248.8134613" x2="906.1226196" y2="512.7252808"/>
	
		<rect id="svg_140" x="903.413208" y="248.3901215" fill="#EF4966" stroke="#0D0A0A" stroke-miterlimit="10" width="5.5034542" height="0.8466853"/>
	
		<rect id="svg_141" x="903.413208" y="512.3019409" fill="#EF4966" stroke="#0D0A0A" stroke-miterlimit="10" width="5.5034542" height="0.8466853"/>
	
		<line id="svg_142" fill="none" stroke="#0D0A0A" stroke-width="2" stroke-linecap="round" stroke-linejoin="round" x1="906.1226196" y1="121.2179871" x2="906.1226196" y2="221.3808594"/>
	
		<rect id="svg_143" x="903.413208" y="120.7946472" fill="#EF4966" stroke="#0D0A0A" stroke-miterlimit="10" width="5.5034542" height="0.8466853"/>
	
		<rect id="svg_144" x="903.413208" y="220.9575195" fill="#EF4966" stroke="#0D0A0A" stroke-miterlimit="10" width="5.5034542" height="0.8466853"/>
	
		<line id="svg_145" fill="none" stroke="#0D0A0A" stroke-width="2" stroke-linecap="round" stroke-linejoin="round" x1="401.4981689" y1="107.5863571" x2="745.2523804" y2="107.5863571"/>
	
		<rect id="svg_146" x="401.0748291" y="104.8769684" fill="#EF4966" stroke="#0D0A0A" stroke-miterlimit="10" width="0.8466853" height="5.5034542"/>
	<g>
		<g>
			
				<rect id="svg_147" x="744.8290405" y="104.8769684" fill="#EF4966" stroke="#0D0A0A" stroke-miterlimit="10" width="0.8466853" height="5.5034542"/>
		</g>
	</g>
	<g>
		<g>
			
				<line id="svg_188" fill="none" stroke="#0D0A0A" stroke-width="2" stroke-linecap="round" stroke-linejoin="round" x1="260.9483948" y1="80.0690842" x2="885.802124" y2="80.0690842"/>
		</g>
	</g>
	<g>
		<g>
			
				<rect id="svg_189" x="260.5250549" y="72.9569321" fill="#010101" stroke="#0D0A0A" stroke-miterlimit="10" width="0.8466853" height="13.9703074"/>
		</g>
	</g>
	
		<line id="svg_253" fill="none" stroke="#0D0A0A" stroke-width="2" stroke-linecap="round" stroke-linejoin="round" stroke-miterlimit="10" x1="243.0833435" y1="217.4014435" x2="251.7195435" y2="223.3282318"/>
	
		<line id="svg_254" fill="none" stroke="#0D0A0A" stroke-width="2" stroke-linecap="round" stroke-linejoin="round" stroke-miterlimit="10" x1="243.8453674" y1="250.9301758" x2="251.7195435" y2="243.3946686"/>
	
		<polyline id="svg_255" fill="none" stroke="#0D0A0A" stroke-width="2" stroke-linecap="round" stroke-linejoin="round" stroke-miterlimit="10" points="
		889.4428711,248.4747772 896.5550537,248.4747772 862.2642822,277.5160828 	"/>
	<g>
		
			<polyline id="svg_256" fill="none" stroke="#0D0A0A" stroke-width="2" stroke-linecap="round" stroke-linejoin="round" stroke-miterlimit="10" points="
			889.4428711,221.8041992 896.5550537,221.8041992 862.2642822,197.0809937 		"/>
	</g>
	<g>
		<g>
			
				<rect id="svg_189_1_" x="885.802124" y="73.094223" fill="#010101" stroke="#0D0A0A" stroke-miterlimit="10" width="0.8466853" height="13.9703074"/>
		</g>
	</g>
 <text id="SVG_width_mm" xml:space="preserve" text-anchor="left" font-family="Helvetica, Arial, sans-serif" font-size="28" y="56.5" x="517.64063" stroke-width="0" stroke="#000" fill="#000000">00.00mm</text>
  <text id="SVG_table_pre" xml:space="preserve" text-anchor="left" font-family="Helvetica, Arial, sans-serif" font-size="26" y="104.5" x="539.13281" stroke-width="0" stroke="#000" fill="#000000">00.0%</text>
  <text id="SVG_crown_pre" xml:space="preserve" text-anchor="left" font-family="Helvetica, Arial, sans-serif" font-size="28" y="159.5" x="924.64063" stroke-width="0" stroke="#000" fill="#000000">00.0%</text>
  <text id="SVG_crown_mm" xml:space="preserve" text-anchor="left" font-family="Helvetica, Arial, sans-serif" font-size="28" y="197.5" x="924.64063" stroke-width="0" stroke="#000" fill="#000000">00.00mm</text>
  <text id="SVG_pavillion_pre" xml:space="preserve" text-anchor="left" font-family="Helvetica, Arial, sans-serif" font-size="28" y="391.5" x="924.64063" stroke-width="0" stroke="#000" fill="#000000">00.0%</text>
  <text id="SVG_pavillion_mm" xml:space="preserve" text-anchor="left" font-family="Helvetica, Arial, sans-serif" font-size="28" y="429.5" x="924.64063" stroke-width="0" stroke="#000" fill="#000000">00.00mm</text>
  <text id="SVG_girdle_pre" xml:space="preserve" text-anchor="left" font-family="Helvetica, Arial, sans-serif" font-size="28" y="224.5" x="154.95313" stroke-width="0" stroke="#000" fill="#000000">00.0%</text>
  <text id="SVG_girdle_mm" xml:space="preserve" text-anchor="left" font-family="Helvetica, Arial, sans-serif" font-size="28" y="262.5" x="117.64063" stroke-width="0" stroke="#000" fill="#000000">00.00mm</text>
  <text id="SVG_culet_mm" xml:space="preserve" text-anchor="left" font-family="Helvetica, Arial, sans-serif" font-size="28" y="548.5" x="536.29688" stroke-width="0" stroke="#000" fill="#000000">00.0%</text>
  <text id="SVG_crown_rounded" xml:space="preserve" text-anchor="left" font-family="Helvetica, Arial, sans-serif" font-size="28" y="152.5" x="806.64063" stroke-width="0" stroke="#000" fill="#000000">00.0%</text>
  <text id="SVG_pavillion_rounded" xml:space="preserve" text-anchor="left" font-family="Helvetica, Arial, sans-serif" font-size="28" y="468.5" x="686.64063" stroke-width="0" stroke="#000" fill="#000000">00.0%</text>
  <text id="SVG_total_depth_per" xmlns="http://www.w3.org/2000/svg" xml:space="preserve" text-anchor="left" font-family="Helvetica, Arial, sans-serif" font-size="28" y="440.5" x="100" stroke-width="0" stroke="#000" fill="#000000">00.0%</text>
  <text id="SVG_total_depth_mm" xmlns="http://www.w3.org/2000/svg" xml:space="preserve" text-anchor="left" font-family="Helvetica, Arial, sans-serif" font-size="28" y="480.5" x="100" stroke-width="0" stroke="#000" fill="#000000">00.0%</text>
</g>
</svg>
