<svg id="Layer_1" data-name="Layer 1" xmlns="http://www.w3.org/2000/svg" viewBox="0 0 538.5 323.6">
  <defs>
    <style>
      .cls-1, .cls-3, .cls-4, .cls-5 {
        fill: none;
      }

      .cls-1 {
        stroke: #020202;
        stroke-miterlimit: 10;
      }

      .cls-1, .cls-3, .cls-5 {
        stroke-width: 2px;
      }

      .cls-2 {
        isolation: isolate;
        font-size: 16px;
        font-family: ArialMT, Arial;
      }

      .cls-3 {
        stroke: #000;
      }

      .cls-3, .cls-5 {
        stroke-linejoin: bevel;
      }

      .cls-5 {
        stroke: #070607;
      }
    </style>
  </defs>
  <title>Radiant</title>
  <g id="lines">
    <line class="cls-1" x1="169.6" y1="46.5" x2="364.1" y2="46.5"/>
    <line class="cls-1" x1="169.6" y1="44.4" x2="169.6" y2="48.4"/>
    <line class="cls-1" x1="364.5" y1="44.3" x2="364.5" y2="48.6"/>
    <g>
      <line class="cls-1" x1="108" y1="20.7" x2="433.1" y2="20.7"/>
      <line class="cls-1" x1="433.3" y1="17" x2="433.3" y2="24"/>
      <line class="cls-1" x1="107.9" y1="17" x2="107.9" y2="24"/>
    </g>
    <g>
      <line class="cls-1" x1="75.1" y1="54.7" x2="75.1" y2="295.3"/>
      <line class="cls-1" x1="73" y1="54.7" x2="77" y2="54.7"/>
      <line class="cls-1" x1="72.9" y1="295.5" x2="77" y2="295.5"/>
    </g>
    <g>
      <line class="cls-1" x1="470.7" y1="54.7" x2="470.7" y2="95.2"/>
      <line class="cls-1" x1="469.4" y1="54.7" x2="472" y2="54.7"/>
      <line class="cls-1" x1="469.3" y1="95.2" x2="472" y2="95.2"/>
    </g>
    <g>
      <line class="cls-1" x1="470.9" y1="112.5" x2="470.9" y2="295.6"/>
      <line class="cls-1" x1="468.7" y1="112.1" x2="473" y2="112.1"/>
      <line class="cls-1" x1="468.6" y1="295.7" x2="473" y2="295.7"/>
    </g>
    <g>
      <line class="cls-1" x1="441.7" y1="81.3" x2="462.5" y2="95.3"/>
      <line class="cls-1" x1="456.8" y1="95.3" x2="462.5" y2="95.3"/>
    </g>
    <line class="cls-1" x1="69.7" y1="92.9" x2="75" y2="96.2"/>
    <line class="cls-1" x1="70.7" y1="114.6" x2="75.5" y2="110.3"/>
    <g>
      <line class="cls-1" x1="441.7" y1="127.6" x2="462.5" y2="111.1"/>
      <line class="cls-1" x1="456.8" y1="111.1" x2="462.5" y2="111.1"/>
    </g>
  </g>
  <g id="text">
    <text class="cls-2" id="SVG_culet_mm" transform="translate(246.1 318.4)">0.0%</text>
    <text class="cls-2" id="SVG_crown_rounded" transform="translate(421.6 74.4)">0.0°</text>
    <text class="cls-2" id="SVG_pavillion_rounded" transform="translate(421.6 184.7)">0.0°</text>
    <g id="Pavillion">
      <text class="cls-2" id="SVG_pavillion_pre" transform="translate(480.7 235.7)">0.0%</text>
      <text class="cls-2" id="SVG_pavillion_mm" transform="translate(480.7 205.3)">0.00mm</text>
    </g>
    <g id="Crown">
      <text class="cls-2" id="SVG_crown_mm" transform="translate(479.7 84)">0.00mm</text>
      <text class="cls-2" id="SVG_crown_pre" transform="translate(479.7 66.3)">0.0%</text>
    </g>
    <g id="Total">
      <text class="cls-2" id="SVG_total_depth_per" transform="translate(0 281.9)">0.0%</text>
      <text class="cls-2" id="SVG_total_depth_mm" transform="translate(0 257.6)">0.00mm</text>
    </g>
    <g id="Girdle">
      <text class="cls-2" id="SVG_girdle_mm" transform="translate(0 147.6)">0.00mm</text>
      <text class="cls-2" id="SVG_girdle_pre" transform="translate(0 108.5)">0.0%</text>
    </g>
    <g id="Table">
      <text class="cls-2" id="SVG_table_pre" transform="translate(245.1 42.1)">0.0%</text>
      <text class="cls-2" id="SVG_width_mm" transform="translate(238.8 13.7)">0.00mm</text>
    </g>
  </g>
  <g id="Radiant">
    <g>
      <polygon class="cls-3" points="431.7 95.2 431.8 110.5 366.5 218.4 268.2 295.5 169.8 218.4 108 110.5 108 95.2 169.8 54.7 364.3 54.7 431.7 95.2"/>
      <line class="cls-4" x1="431.8" y1="110.5" x2="108" y2="110.5"/>
      <line class="cls-5" x1="360.1" y1="80" x2="376.9" y2="95.2"/>
      <line class="cls-4" x1="131" y1="80" x2="406.2" y2="80"/>
      <line class="cls-5" x1="158.6" y1="95.2" x2="176.1" y2="80"/>
      <line class="cls-4" x1="158.6" y1="95.2" x2="176.1" y2="80"/>
      <line class="cls-4" x1="360.1" y1="80" x2="376.9" y2="95.2"/>
      <line class="cls-5" x1="131" y1="80" x2="406.2" y2="80"/>
      <line class="cls-5" x1="167.3" y1="145.8" x2="219.8" y2="188.3"/>
      <line class="cls-5" x1="431.8" y1="110.5" x2="108" y2="110.5"/>
      <line class="cls-4" x1="167.3" y1="145.8" x2="219.8" y2="188.3"/>
      <line class="cls-5" x1="376.7" y1="110.5" x2="376.9" y2="95.2"/>
      <line class="cls-4" x1="317.9" y1="188.3" x2="268.3" y2="206.9"/>
      <line class="cls-4" x1="158.6" y1="163.6" x2="214.3" y2="247.9"/>
      <line class="cls-5" x1="158.6" y1="163.6" x2="213.5" y2="252.6"/>
      <line class="cls-4" x1="327.1" y1="243.3" x2="379.8" y2="162.5"/>
      <line class="cls-4" x1="268.3" y1="206.9" x2="219.8" y2="188.3"/>
      <line class="cls-5" x1="328.9" y1="247.9" x2="379.8" y2="162.5"/>
      <line class="cls-5" x1="268.3" y1="206.9" x2="219.8" y2="188.3"/>
      <line class="cls-5" x1="317.9" y1="188.3" x2="268.3" y2="206.9"/>
      <line class="cls-4" x1="268.3" y1="265.2" x2="219.8" y2="188.3"/>
      <line class="cls-5" x1="268.3" y1="265.2" x2="219.8" y2="188.3"/>
      <line class="cls-5" x1="317.9" y1="188.3" x2="367.9" y2="145.8"/>
      <line class="cls-4" x1="317.9" y1="188.3" x2="367.9" y2="145.8"/>
      <line class="cls-4" x1="268.3" y1="265.2" x2="317.9" y2="188.3"/>
      <line class="cls-5" x1="268.7" y1="54.7" x2="176.1" y2="80"/>
      <line class="cls-5" x1="268.3" y1="265.2" x2="317.9" y2="188.3"/>
      <line class="cls-4" x1="376.7" y1="110.5" x2="376.9" y2="95.2"/>
      <line class="cls-4" x1="136.5" y1="160.1" x2="158.6" y2="163.6"/>
      <line class="cls-4" x1="158.6" y1="95.2" x2="158.5" y2="110.5"/>
      <line class="cls-5" x1="136.5" y1="160.1" x2="158.6" y2="163.6"/>
      <line class="cls-5" x1="158.6" y1="95.2" x2="158.5" y2="110.5"/>
      <line class="cls-4" x1="360.1" y1="80" x2="268.7" y2="54.7"/>
      <line class="cls-4" x1="268.7" y1="54.7" x2="176.1" y2="80"/>
      <line class="cls-5" x1="360.1" y1="80" x2="268.7" y2="54.7"/>
      <line class="cls-4" x1="367.9" y1="145.8" x2="376.7" y2="110.5"/>
      <line class="cls-5" x1="268.3" y1="265.2" x2="158.6" y2="163.6"/>
      <line class="cls-4" x1="167.3" y1="145.8" x2="158.5" y2="110.5"/>
      <line class="cls-5" x1="367.9" y1="145.8" x2="376.7" y2="110.5"/>
      <line class="cls-5" x1="167.3" y1="145.8" x2="158.5" y2="110.5"/>
      <line class="cls-4" x1="268.3" y1="265.2" x2="158.6" y2="163.6"/>
      <line class="cls-4" x1="268.3" y1="265.2" x2="379.8" y2="162.5"/>
      <line class="cls-5" x1="268.3" y1="265.2" x2="379.8" y2="162.5"/>
      <line class="cls-4" x1="431.7" y1="95.2" x2="108" y2="95.2"/>
      <line class="cls-4" x1="379.8" y1="162.5" x2="403.8" y2="156.9"/>
      <line class="cls-5" x1="431.7" y1="95.2" x2="108" y2="95.2"/>
      <line class="cls-4" x1="406.2" y1="80" x2="341.6" y2="54.7"/>
      <line class="cls-5" x1="190.7" y1="54.7" x2="131" y2="80"/>
      <line class="cls-4" x1="190.7" y1="54.7" x2="131" y2="80"/>
      <line class="cls-5" x1="379.8" y1="162.5" x2="403.8" y2="156.9"/>
      <line class="cls-5" x1="406.2" y1="80" x2="341.6" y2="54.7"/>
      <line class="cls-5" x1="367.9" y1="145.8" x2="379.8" y2="162.5"/>
      <line class="cls-4" x1="367.9" y1="145.8" x2="379.8" y2="162.5"/>
      <line class="cls-5" x1="167.3" y1="145.8" x2="158.6" y2="163.6"/>
      <line class="cls-4" x1="167.3" y1="145.8" x2="158.6" y2="163.6"/>
      <line class="cls-4" x1="268.2" y1="295.5" x2="268.3" y2="206.9"/>
      <line class="cls-5" x1="268.2" y1="295.5" x2="268.3" y2="206.9"/>
    </g>
  </g>
</svg>
