<svg id="Layer_1" data-name="Layer 1" xmlns="http://www.w3.org/2000/svg" viewBox="0 0 538.5 272.1">
  <defs>
    <style>
      .cls-1, .cls-3 {
        fill: none;
        stroke-width: 2px;
      }

      .cls-1 {
        stroke: #020202;
        stroke-miterlimit: 10;
      }

      .cls-2 {
        isolation: isolate;
        font-size: 16px;
        font-family: ArialMT, Arial;
      }

      .cls-3 {
        stroke: #0d0a0a;
        stroke-linecap: round;
        stroke-linejoin: round;
      }
    </style>
  </defs>
  <title>Pear</title>
  <g id="lines">
    <line class="cls-1" x1="168.9" y1="48.9" x2="396.8" y2="48.9"/>
    <line class="cls-1" x1="168.9" y1="46.3" x2="168.9" y2="51.4"/>
    <line class="cls-1" x1="397.3" y1="46.1" x2="397.3" y2="51.5"/>
    <g>
      <line class="cls-1" x1="86.5" y1="21" x2="445" y2="21"/>
      <line class="cls-1" x1="445.2" y1="17" x2="445.2" y2="24.6"/>
      <line class="cls-1" x1="86.4" y1="17" x2="86.4" y2="24.5"/>
    </g>
    <g>
      <line class="cls-1" x1="75.1" y1="71.2" x2="75.1" y2="245.9"/>
      <line class="cls-1" x1="73" y1="71.2" x2="77" y2="71.2"/>
      <line class="cls-1" x1="72.9" y1="246.1" x2="77" y2="246.1"/>
    </g>
    <g>
      <line class="cls-1" x1="470.8" y1="70" x2="470.8" y2="114.1"/>
      <line class="cls-1" x1="468.9" y1="70" x2="472.5" y2="70"/>
      <line class="cls-1" x1="468.8" y1="114.1" x2="472.5" y2="114.1"/>
    </g>
    <g>
      <line class="cls-1" x1="470.9" y1="130" x2="470.9" y2="246.5"/>
      <line class="cls-1" x1="468.8" y1="129.7" x2="472.9" y2="129.7"/>
      <line class="cls-1" x1="468.7" y1="246.6" x2="472.9" y2="246.6"/>
    </g>
    <g>
      <line class="cls-1" x1="441.7" y1="98.9" x2="462.5" y2="114.1"/>
      <line class="cls-1" x1="456.8" y1="114.1" x2="462.5" y2="114.1"/>
    </g>
    <line class="cls-1" x1="70.4" y1="105.9" x2="75.7" y2="109.5"/>
    <line class="cls-1" x1="70.7" y1="125.3" x2="75.5" y2="120.7"/>
    <g>
      <line class="cls-1" x1="441.7" y1="147.6" x2="462.5" y2="129.7"/>
      <line class="cls-1" x1="456.8" y1="129.7" x2="462.5" y2="129.7"/>
    </g>
  </g>
  <g id="text">
    <text class="cls-2" id="SVG_culet_mm" transform="translate(300.1 266.9)">0.0%</text>
    <text class="cls-2" id="SVG_crown_rounded" transform="translate(421.6 74.4)">0.0°</text>
    <text class="cls-2" id="SVG_pavillion_rounded" transform="translate(421.6 184.7)">0.0°</text>
    <g id="Pavillion">
      <text class="cls-2" id="SVG_pavillion_pre" transform="translate(480.7 235.7)">0.0%</text>
      <text class="cls-2" id="SVG_pavillion_mm" transform="translate(480.7 205.3)">0.00mm</text>
    </g>
    <g id="Crown">
      <text class="cls-2" id="SVG_crown_mm" transform="translate(479.7 84)">0.00mm</text>
      <text class="cls-2" id="SVG_crown_pre" transform="translate(479.7 66.3)">0.0%</text>
    </g>
    <g id="Total">
      <text class="cls-2" id="SVG_total_depth_per" transform="translate(0 235.7)">0.0%</text>
      <text class="cls-2" id="SVG_total_depth_mm" transform="translate(0 211.4)">0.00mm</text>
    </g>
    <g id="Girdle">
      <text class="cls-2" id="SVG_girdle_mm" transform="translate(0 147.6)">0.00mm</text>
      <text class="cls-2" id="SVG_girdle_pre" transform="translate(0 108.5)">0.0%</text>
    </g>
    <g id="Table">
      <text class="cls-2" id="SVG_table_pre" transform="translate(245.1 42.1)">0.0%</text>
      <text class="cls-2" id="SVG_width_mm" transform="translate(238.8 13.7)">0.00mm</text>
    </g>
  </g>
  <g id="Pear">
    <g>
      <polygon class="cls-3" points="398.5 69.7 424.8 89.5 453.6 115.5 453.6 130.2 317.3 246.1 82 120.3 82 109.3 117.8 84.8 168.3 69.5 398.5 69.7"/>
      <polyline class="cls-3" points="82 109.3 174.7 109.3 186.1 115.2 213.6 115.2 220.1 112.1 231.9 118.6 275.2 118.6 282.4 114.7 288.9 118.6 321.6 118.6 328.9 114.7 336.6 118.8 369.5 118.8 376 114.9 383.3 118.6 411.6 118.6 417.9 114.1 428.2 119 445 119 451.2 113.4"/>
      <polyline class="cls-3" points="201.6 69.5 117.8 84.8 174.7 109.3 268.1 69.5"/>
      <path class="cls-3" d="M178.8,89.5" transform="translate(0 0)"/>
      <line class="cls-3" x1="219.9" y1="69.7" x2="220.1" y2="112.1"/>
      <polyline class="cls-3" points="225.7 87.8 282.4 114.7 331.3 86.1 290.4 70"/>
      <polyline class="cls-3" points="349.7 70 331.3 86.1 376 114.9 391.3 88.7 363.1 69.7"/>
      <polyline class="cls-3" points="398.5 69.7 391.3 88.7 417.9 114.1 423.7 88.9"/>
      <line class="cls-3" x1="331.3" y1="86.1" x2="328.9" y2="114.7"/>
      <polyline class="cls-3" points="418.1 130 381.6 191.3 375.5 129.3 323.5 193.6 282.4 129.5 277.9 197.5 173.4 120.7 202.5 163.5 82 121 209.1 121 216.8 125 274.7 125 282.4 129.5 289.7 125 322.9 125 328.7 130 336.8 125 370.4 125 375.5 129.3 385.6 125 408.4 125 418.1 130 427.8 125 444.8 125 453.6 130.2"/>
      <polyline class="cls-3" points="328.7 130 317.3 246.1 277.9 197.5 217.7 125"/>
      <line class="cls-3" x1="317.3" y1="246.1" x2="202.5" y2="163.5"/>
    </g>
  </g>
</svg>
