<svg id="Layer_1" data-name="Layer 1" xmlns="http://www.w3.org/2000/svg" viewBox="0 0 538.5 305.6">
  <defs>
    <style>
      .cls-1, .cls-3 {
        fill: none;
        stroke-width: 2px;
      }

      .cls-1 {
        stroke: #020202;
        stroke-miterlimit: 10;
      }

      .cls-2 {
        isolation: isolate;
        font-size: 16px;
        font-family: ArialMT, Arial;
      }

      .cls-3 {
        stroke: #000;
        stroke-linecap: round;
        stroke-linejoin: round;
      }
    </style>
  </defs>
  <title>cushion</title>
  <g id="lines">
    <line class="cls-1" x1="156.8" y1="48.9" x2="374.3" y2="48.9"/>
    <line class="cls-1" x1="156.8" y1="46.3" x2="156.8" y2="51.4"/>
    <line class="cls-1" x1="374.8" y1="46.1" x2="374.8" y2="51.5"/>
    <g>
      <line class="cls-1" x1="86.5" y1="21" x2="445" y2="21"/>
      <line class="cls-1" x1="445.2" y1="17" x2="445.2" y2="24.6"/>
      <line class="cls-1" x1="86.4" y1="17" x2="86.4" y2="24.5"/>
    </g>
    <g>
      <line class="cls-1" x1="75.1" y1="54.7" x2="75.1" y2="273.7"/>
      <line class="cls-1" x1="73" y1="54.7" x2="77" y2="54.7"/>
      <line class="cls-1" x1="72.9" y1="273.9" x2="77" y2="273.9"/>
    </g>
    <g>
      <line class="cls-1" x1="470.8" y1="54.7" x2="470.8" y2="121"/>
      <line class="cls-1" x1="468.9" y1="54.7" x2="472.5" y2="54.7"/>
      <line class="cls-1" x1="468.8" y1="121" x2="472.5" y2="121"/>
    </g>
    <g>
      <line class="cls-1" x1="470.9" y1="129.3" x2="470.9" y2="274"/>
      <line class="cls-1" x1="468.8" y1="128.9" x2="472.9" y2="128.9"/>
      <line class="cls-1" x1="468.7" y1="274.1" x2="472.9" y2="274.1"/>
    </g>
    <g>
      <line class="cls-1" x1="440.7" y1="105.8" x2="461.5" y2="120.9"/>
      <line class="cls-1" x1="455.8" y1="120.9" x2="461.5" y2="120.9"/>
    </g>
    <line class="cls-1" x1="70" y1="119.3" x2="75.3" y2="123"/>
    <line class="cls-1" x1="70.3" y1="134.3" x2="75.1" y2="129.7"/>
    <g>
      <line class="cls-1" x1="440.7" y1="147.4" x2="461.5" y2="129.5"/>
      <line class="cls-1" x1="455.8" y1="129.5" x2="461.5" y2="129.5"/>
    </g>
  </g>
  <g id="text">
    <text class="cls-2" id="SVG_culet_mm" transform="translate(246.1 300.4)">0.0%</text>
    <text class="cls-2" id="SVG_crown_rounded" transform="translate(421.6 74.4)">0.0°</text>
    <text class="cls-2" id="SVG_pavillion_rounded" transform="translate(421.6 184.7)">0.0°</text>
    <g id="Pavillion">
      <text class="cls-2" id="SVG_pavillion_pre" transform="translate(480.7 271.5)">0.0%</text>
      <text class="cls-2" id="SVG_pavillion_mm" transform="translate(480.7 241.1)">0.00mm</text>
    </g>
    <g id="Crown">
      <text class="cls-2" id="SVG_crown_mm" transform="translate(479.7 84)">0.00mm</text>
      <text class="cls-2" id="SVG_crown_pre" transform="translate(479.7 66.3)">0.0%</text>
    </g>
    <g id="Total">
      <text class="cls-2" id="SVG_total_depth_per" transform="translate(0 265.4)">0.0%</text>
      <text class="cls-2" id="SVG_total_depth_mm" transform="translate(0 241.1)">0.00mm</text>
    </g>
    <g id="Girdle">
      <text class="cls-2" id="SVG_girdle_mm" transform="translate(0 147.6)">0.00mm</text>
      <text class="cls-2" id="SVG_girdle_pre" transform="translate(0 108.5)">0.0%</text>
    </g>
    <g id="Table">
      <text class="cls-2" id="SVG_table_pre" transform="translate(245.1 42.1)">0.0%</text>
      <text class="cls-2" id="SVG_width_mm" transform="translate(238.8 13.7)">0.00mm</text>
    </g>
  </g>
  <g id="cushion">
    <g>
      <polygon class="cls-3" points="157 54.7 374.5 54.7 449.5 122 449.5 129.2 281.6 273.6 249.9 273.6 81.9 129.2 81.9 122 157 54.7"/>
      <line class="cls-3" x1="81.9" y1="122" x2="449.5" y2="122"/>
      <line class="cls-3" x1="81.9" y1="129.2" x2="449.5" y2="129.2"/>
      <polygon class="cls-3" points="157 54.7 136.8 85 161.5 122 199.1 79.7 157 54.7"/>
      <polygon class="cls-3" points="374.5 54.7 394.7 85 369.9 122 332.4 79.7 374.5 54.7"/>
      <polygon class="cls-3" points="265.7 54.7 332.4 79.7 265.7 122 199.1 79.7 265.7 54.7"/>
      <path class="cls-3" d="M136.7,84.9" transform="translate(0 0)"/>
      <polygon class="cls-3" points="136.8 85 117.8 122 81.9 122 136.8 85"/>
      <polygon class="cls-3" points="394.7 85 413.7 122 449.5 122 394.7 85"/>
      <line class="cls-3" x1="265.7" y1="122" x2="265.7" y2="273.6"/>
      <polygon class="cls-3" points="161.5 129.2 265.7 243.3 369.5 129.2 309.5 235 281.6 273.6 249.9 273.6 221.6 235 161.5 129.2"/>
      <polygon class="cls-3" points="117.8 129.2 221.6 235 81.9 129.2 117.8 129.2"/>
      <polygon class="cls-3" points="413.3 129.2 309.5 235 449.2 129.2 413.3 129.2"/>
    </g>
  </g>
</svg>
