<svg id="Layer_1" data-name="Layer 1" xmlns="http://www.w3.org/2000/svg" viewBox="0 0 538.5 277.1">
  <defs>
    <style>
      .cls-1, .cls-3 {
        fill: none;
        stroke-width: 2px;
      }

      .cls-1 {
        stroke: #020202;
        stroke-miterlimit: 10;
      }

      .cls-2 {
        isolation: isolate;
        font-size: 16px;
        font-family: ArialMT, Arial;
      }

      .cls-3 {
        stroke: #231f20;
        stroke-linecap: round;
        stroke-linejoin: round;
      }
    </style>
  </defs>
  <title>Oval</title>
  <g id="lines">
    <line class="cls-1" x1="132.8" y1="48.9" x2="396.8" y2="48.9"/>
    <line class="cls-1" x1="132.8" y1="46.3" x2="132.8" y2="51.4"/>
    <line class="cls-1" x1="397.3" y1="46.1" x2="397.3" y2="51.5"/>
    <g>
      <line class="cls-1" x1="86.5" y1="21" x2="445" y2="21"/>
      <line class="cls-1" x1="445.2" y1="17" x2="445.2" y2="24.6"/>
      <line class="cls-1" x1="86.4" y1="17" x2="86.4" y2="24.5"/>
    </g>
    <g>
      <line class="cls-1" x1="75.1" y1="72.9" x2="75.1" y2="246.1"/>
      <line class="cls-1" x1="73.5" y1="72.9" x2="76.4" y2="72.9"/>
      <line class="cls-1" x1="73.5" y1="246.3" x2="76.4" y2="246.3"/>
    </g>
    <g>
      <line class="cls-1" x1="470.8" y1="72.8" x2="470.8" y2="116.1"/>
      <line class="cls-1" x1="468.9" y1="72.8" x2="472.5" y2="72.8"/>
      <line class="cls-1" x1="468.8" y1="116.1" x2="472.5" y2="116.1"/>
    </g>
    <g>
      <line class="cls-1" x1="470.9" y1="126.2" x2="470.9" y2="248.4"/>
      <line class="cls-1" x1="468.8" y1="125.9" x2="472.9" y2="125.9"/>
      <line class="cls-1" x1="468.7" y1="248.5" x2="472.9" y2="248.5"/>
    </g>
    <g>
      <line class="cls-1" x1="441.7" y1="100.9" x2="462.5" y2="116.1"/>
      <line class="cls-1" x1="456.8" y1="116.1" x2="462.5" y2="116.1"/>
    </g>
    <line class="cls-1" x1="70" y1="112.8" x2="75.3" y2="116.4"/>
    <line class="cls-1" x1="70.3" y1="130.5" x2="75.1" y2="125.9"/>
    <g>
      <line class="cls-1" x1="441.7" y1="143.9" x2="462.5" y2="125.9"/>
      <line class="cls-1" x1="456.8" y1="125.9" x2="462.5" y2="125.9"/>
    </g>
  </g>
  <g id="text">
    <text class="cls-2" id="SVG_culet_mm" transform="translate(246.1 271.9)">0.0%</text>
    <text class="cls-2"  id="SVG_crown_rounded" transform="translate(421.6 74.4)">0.0°</text>
    <text class="cls-2" id="SVG_pavillion_rounded" transform="translate(421.6 184.7)">0.0°</text>
    <g id="Pavillion">
      <text class="cls-2" id="SVG_pavillion_pre" transform="translate(480.7 235.7)">0.0%</text>
      <text class="cls-2" id="SVG_pavillion_mm" transform="translate(480.7 205.3)">0.00mm</text>
    </g>
    <g id="Crown">
      <text class="cls-2" id="SVG_crown_mm" transform="translate(479.7 84)">0.00mm</text>
      <text class="cls-2" id="SVG_crown_pre" transform="translate(479.7 66.3)">0.0%</text>
    </g>
    <g id="Total">
      <text class="cls-2" id="SVG_total_depth_per" transform="translate(0 238.9)">0.0%</text>
      <text class="cls-2" id="SVG_total_depth_mm" transform="translate(0 214.6)">0.00mm</text>
    </g>
    <g id="Girdle">
      <text class="cls-2" id="SVG_girdle_mm" transform="translate(0 147.6)">0.00mm</text>
      <text class="cls-2" id="SVG_girdle_pre" transform="translate(0 108.5)">0.0%</text>
    </g>
    <g id="Table">
      <text class="cls-2" id="SVG_table_pre" transform="translate(245.1 42.1)">0.0%</text>
      <text class="cls-2" id="SVG_width_mm" transform="translate(238.8 13.7)">0.00mm</text>
    </g>
  </g>
  <g id="Oval">
    <g>
      <rect class="cls-3" x="81.2" y="116.4" width="370.9" height="9.52"/>
      <line class="cls-3" x1="267.1" y1="116.4" x2="267.1" y2="246.3"/>
      <polygon class="cls-3" points="135 72.8 398.9 72.8 452.1 116.4 452.1 125.9 338.1 205.5 267.1 246.3 195.3 205.7 81.2 125.9 81.2 116.4 135 72.8"/>
      <polygon class="cls-3" points="120 85.2 107.7 116.4 107.7 126.2 195.3 205.7 141.3 125.7 141.3 116.4 120 85.2"/>
      <polygon class="cls-3" points="413.5 85.2 425.8 116.4 425.8 126.2 338.2 205.7 392.3 125.7 392.3 116.4 413.5 85.2"/>
      <polygon class="cls-3" points="338.5 125.9 267.1 246.3 392.3 125.7 392.3 116.4 317.4 85.2 338.5 117 338.5 125.9"/>
      <polygon class="cls-3" points="195.1 125.9 266.6 246.3 141.3 125.7 141.3 116.4 216.2 85.2 195.1 117 195.1 125.9"/>
      <polyline class="cls-3" points="120 85.2 182.9 72.9 216.2 85.2 266.9 73.1"/>
      <polyline class="cls-3" points="413.7 85.2 350.9 72.9 317.5 85.2 266.9 73.1"/>
      <polyline class="cls-3" points="318.2 85.4 267.1 116.4 216.6 85.4"/>
    </g>
  </g>
</svg>
