<svg id="Layer_1" data-name="Layer 1" xmlns="http://www.w3.org/2000/svg" viewBox="0 0 538.5 323.6">
  <defs>
    <style>
      .cls-1, .cls-3, .cls-4 {
        fill: none;
        stroke-width: 2px;
      }

      .cls-1, .cls-4 {
        stroke: #020202;
      }

      .cls-1 {
        stroke-miterlimit: 10;
      }

      .cls-2 {
        isolation: isolate;
        font-size: 16px;
        font-family: ArialMT, Arial;
      }

      .cls-3 {
        stroke: #231f20;
      }

      .cls-3, .cls-4 {
        stroke-linejoin: bevel;
      }
    </style>
  </defs>
  <title>Princess</title>
  <g id="lines">
    <line class="cls-1" x1="134.6" y1="48.9" x2="396.8" y2="48.9"/>
    <line class="cls-1" x1="134.6" y1="46.3" x2="134.6" y2="51.4"/>
    <line class="cls-1" x1="397.3" y1="46.1" x2="397.3" y2="51.5"/>
    <g>
      <line class="cls-1" x1="86.5" y1="21.1" x2="444.8" y2="21.1"/>
      <line class="cls-1" x1="445" y1="17.3" x2="445" y2="24.6"/>
      <line class="cls-1" x1="86.4" y1="17.3" x2="86.4" y2="24.5"/>
    </g>
    <g>
      <line class="cls-1" x1="75.1" y1="79.8" x2="75.1" y2="293.1"/>
      <line class="cls-1" x1="73" y1="79.8" x2="77" y2="79.8"/>
      <line class="cls-1" x1="72.9" y1="293.4" x2="77" y2="293.4"/>
    </g>
    <g>
      <line class="cls-1" x1="470.8" y1="76.7" x2="470.8" y2="110.6"/>
      <line class="cls-1" x1="468.9" y1="76.7" x2="472.5" y2="76.7"/>
      <line class="cls-1" x1="468.8" y1="110.6" x2="472.5" y2="110.6"/>
    </g>
    <g>
      <line class="cls-1" x1="470.9" y1="122.7" x2="470.9" y2="293.1"/>
      <line class="cls-1" x1="468.8" y1="122.3" x2="472.9" y2="122.3"/>
      <line class="cls-1" x1="468.7" y1="293.2" x2="472.9" y2="293.2"/>
    </g>
    <g>
      <line class="cls-1" x1="441.7" y1="95.1" x2="462.5" y2="110.3"/>
      <line class="cls-1" x1="456.8" y1="110.3" x2="462.5" y2="110.3"/>
    </g>
    <line class="cls-1" x1="69.7" y1="106.8" x2="75" y2="110.5"/>
    <line class="cls-1" x1="70.7" y1="126.7" x2="75.5" y2="122.1"/>
    <g>
      <line class="cls-1" x1="441.7" y1="140.6" x2="462.5" y2="122.7"/>
      <line class="cls-1" x1="456.8" y1="122.7" x2="462.5" y2="122.7"/>
    </g>
  </g>
  <g id="text">
    <text class="cls-2" id="SVG_culet_mm" transform="translate(246.1 318.4)">0.0%</text>
    <text class="cls-2" id="SVG_crown_rounded" transform="translate(421.6 74.4)">0.0°</text>
    <text class="cls-2" id="SVG_pavillion_rounded" transform="translate(421.6 184.7)">0.0°</text>
    <g id="Pavillion">
      <text class="cls-2" id="SVG_pavillion_pre" transform="translate(480.7 235.7)">0.0%</text>
      <text class="cls-2" id="SVG_pavillion_mm" transform="translate(480.7 205.3)">0.00mm</text>
    </g>
    <g id="Crown">
      <text class="cls-2" id="SVG_crown_mm" transform="translate(479.7 84)">0.00mm</text>
      <text class="cls-2" id="SVG_crown_pre" transform="translate(479.7 66.3)">0.0%</text>
    </g>
    <g id="Total">
      <text class="cls-2" id="SVG_total_depth_per" transform="translate(0 281.9)">0.0%</text>
      <text class="cls-2" id="SVG_total_depth_mm" transform="translate(0 257.6)">0.00mm</text>
    </g>
    <g id="Girdle">
      <text class="cls-2" id="SVG_girdle_mm" transform="translate(0 147.6)">0.00mm</text>
      <text class="cls-2" id="SVG_girdle_pre" transform="translate(0 108.5)">0.0%</text>
    </g>
    <g id="Table">
      <text class="cls-2" id="SVG_table_pre" transform="translate(245.1 42.1)">0.0%</text>
      <text class="cls-2" id="SVG_width_mm" transform="translate(238.8 13.7)">0.00mm</text>
    </g>
  </g>
  <g id="Princess">
    <g>
      <polygon class="cls-3" points="216.5 268.1 265.9 293.2 319 268.1 406.3 194.2 449.1 122.1 449.1 110.6 398.1 76.6 134.9 76.6 83 110.6 83 122.2 130.9 194 216.5 268.1"/>
      <line class="cls-4" x1="265.9" y1="76.6" x2="449.1" y2="110.6"/>
      <line class="cls-4" x1="308.6" y1="273" x2="449.1" y2="122.1"/>
      <line class="cls-4" x1="83" y1="122.2" x2="265.9" y2="257.5"/>
      <line class="cls-4" x1="83" y1="110.6" x2="265.9" y2="76.6"/>
      <line class="cls-4" x1="265.9" y1="257.5" x2="449.1" y2="122.1"/>
      <line class="cls-4" x1="265.9" y1="231.8" x2="449.1" y2="122.1"/>
      <line class="cls-4" x1="83" y1="122.2" x2="265.9" y2="231.8"/>
      <line class="cls-4" x1="83" y1="122.2" x2="227.1" y2="273.4"/>
      <line class="cls-4" x1="82.9" y1="110.6" x2="449.1" y2="110.6"/>
      <line class="cls-4" x1="449.1" y1="122.1" x2="83" y2="122.1"/>
      <line class="cls-4" x1="83" y1="122.2" x2="265.9" y2="211.9"/>
      <line class="cls-4" x1="265.9" y1="211.9" x2="449.1" y2="122.1"/>
      <line class="cls-4" x1="265.9" y1="211.9" x2="265.9" y2="293.4"/>
      <line class="cls-4" x1="161.3" y1="96.5" x2="161.3" y2="76.6"/>
      <path class="cls-4" d="M372.7,76.7V96.5" transform="translate(0 0)"/>
      <path class="cls-4" d="M161.3,76.6C83,109.7,83,110.6,83,110.6" transform="translate(0 0)"/>
      <path class="cls-4" d="M449.1,110.6C385.3,82,372.7,76.7,372.7,76.7" transform="translate(0 0)"/>
      <line class="cls-1" x1="161.3" y1="96.5" x2="372.7" y2="96.5"/>
    </g>
  </g>
</svg>
