<?xml version="1.0" encoding="utf-8"?>
<!-- Generator: Adobe Illustrator 23.0.3, SVG Export Plug-In . SVG Version: 6.00 Build 0)  -->
<svg version="1.1" id="Layer_1" xmlns="http://www.w3.org/2000/svg" xmlns:xlink="http://www.w3.org/1999/xlink" x="0px" y="0px"
	 viewBox="0 0 651 360.6" style="enable-background:new 0 0 651 360.6;" xml:space="preserve">
<style type="text/css">
	.st0{fill:none;stroke:#020202;stroke-width:2;stroke-miterlimit:10;}
	.st1{fill:none;stroke:#7F7F7F;stroke-width:2;stroke-miterlimit:10;}
	.st2{font-family:'ArialMT';}
	.st3{font-size:21px;}
	.st4{fill:none;stroke:#000000;stroke-width:2;stroke-linecap:round;stroke-miterlimit:10;}
</style>
<g>
	<title>Round</title>
	<g id="lines">
		<line class="st0" x1="182.6" y1="61.8" x2="386.5" y2="61.8"/>
		<line class="st0" x1="182.6" y1="59.8" x2="182.6" y2="63.7"/>
		<line class="st0" x1="387" y1="59.6" x2="387" y2="63.9"/>
		<g>
			<line class="st0" x1="104.6" y1="36.5" x2="463" y2="36.5"/>
			<line class="st0" x1="463.3" y1="32.8" x2="463.3" y2="39.7"/>
			<line class="st0" x1="104.5" y1="32.8" x2="104.5" y2="39.6"/>
		</g>
		<g>
			<line class="st0" x1="93.2" y1="85.1" x2="93.2" y2="316.8"/>
			<line class="st0" x1="91.1" y1="85.1" x2="95.1" y2="85.1"/>
			<line class="st0" x1="91" y1="317" x2="95.1" y2="317"/>
		</g>
		<g>
			<line class="st0" x1="540.8" y1="84.1" x2="540.8" y2="145.2"/>
			<line class="st0" x1="486.7" y1="84.1" x2="490.8" y2="84.1"/>
			<line class="st0" x1="538.5" y1="145.2" x2="542.8" y2="145.2"/>
		</g>
		<g>
			<line class="st0" x1="540.9" y1="159.1" x2="540.9" y2="317.1"/>
			<line class="st0" x1="538.9" y1="158.8" x2="542.8" y2="158.8"/>
			<line class="st0" x1="538.8" y1="317.2" x2="542.8" y2="317.2"/>
		</g>
		<g>
			<line class="st0" x1="459.8" y1="131.4" x2="480.5" y2="145.2"/>
			<line class="st0" x1="474.8" y1="145.2" x2="480.5" y2="145.2"/>
		</g>
		<g>
			<line class="st0" x1="459.8" y1="175.1" x2="480.5" y2="158.8"/>
			<line class="st0" x1="474.8" y1="158.8" x2="480.5" y2="158.8"/>
		</g>
		<g>
			<line class="st1" x1="541.2" y1="152.8" x2="471.2" y2="152.8"/>
			<line class="st0" x1="540.9" y1="150.7" x2="540.9" y2="154.9"/>
			<line class="st0" x1="471.2" y1="150.5" x2="471.2" y2="154.8"/>
		</g>
	</g>
	<g id="text">
		<g>
			<g id="TSVG_Culet_Size_percentages">
				<g>
					<text id="SVG_Culet_Size_percentages" data-rounding="1" data-suffix="%"  transform="matrix(1 0 0 1 313.6164 346.2)" class="st2 st3">0.0%</text>
				</g>
			</g>
			<g >
				<text transform="matrix(1 0 0 1 213.1654 346.2)" class="st2 st3">Culet Size</text>
			</g>
		</g>
		<g >
			<g>
				<text id="SVG_Crown_angel-deg" data-rounding="1" data-suffix="째" transform="matrix(1 0 0 1 455.938 107.2001)" class="st2 st3">0.0째</text>
			</g>
		</g>
		<g id="Crown_3_">
			<g>
				<text transform="matrix(1 0 0 1 37.0545 258.1)" class="st2 st3">Total</text>
				<text transform="matrix(1 0 0 1 27.7029 276.1)" class="st2 st3">Depht</text>
			</g>
		</g>
		<g id="Crown_1_">
			<g>
				<text id="SVG_Total_Depth_mm" data-rounding="2" data-suffix="mm"  transform="matrix(1 0 0 1 7.8821 318.2501)" class="st2 st3">0.00mm</text>
				<text id="SVG_Total_Depth_percentages" data-rounding="1" data-suffix="%" transform="matrix(1 0 0 1 30.8753 300.5501)" class="st2 st3">0.0%</text>
			</g>
		</g>
		<g id="Crown_22_">
			<g>
				<text transform="matrix(1 0 0 1 549.5408 258.1)" class="st2 st3">Pavilion </text>
				<text transform="matrix(1 0 0 1 549.5408 276.1)" class="st2 st3">Depht</text>
			</g>
		</g>
		<g id="Crown_10_">
			<g>
				<text id="SVG_Pavilion_height-mm" data-rounding="2" data-suffix="mm" transform="matrix(1 0 0 1 549.5408 318.2501)" class="st2 st3">0.00mm</text>
				<text id="SVG_Pavilion_height-percentages" data-rounding="1" data-suffix="%"  transform="matrix(1 0 0 1 549.5408 300.5501)" class="st2 st3">0.0%</text>
			</g>
		</g>
		<g id="Crown_21_">
			<g>
				<text transform="matrix(1 0 0 1 549.5408 170.8748)" class="st2 st3">Girdle </text>
				<text transform="matrix(1 0 0 1 549.5408 188.8748)" class="st2 st3">Thickness</text>
			</g>
		</g>
		<g id="Crown_8_">
			<g>
				<text id="SVG_Girdle_Thickness-mm" data-rounding="2" data-suffix="mm"  transform="matrix(1 0 0 1 549.5408 231.0249)" class="st2 st3">0.00mm</text>
				<text id="SVG_Girdle_Thickness-percentages" data-rounding="1" data-suffix="%"  transform="matrix(1 0 0 1 549.5408 213.3249)" class="st2 st3">0.0%</text>
			</g>
		</g>
		<g id="Crown_16_">
			<g>
				<text transform="matrix(1 0 0 1 549.5408 86.125)" class="st2 st3">Crown</text>
				<text transform="matrix(1 0 0 1 549.5408 104.125)" class="st2 st3">Height</text>
			</g>
		</g>
		<g id="Crown_2_">
			<g>
				<text id="SVG_Crown_height-mm" data-rounding="2" data-suffix="mm"  transform="matrix(1 0 0 1 549.5408 146.2752)" class="st2 st3">0.00mm</text>
				<text id="SVG_Crown_height-percentages" data-rounding="1" data-suffix="%"  transform="matrix(1 0 0 1 549.5408 128.5751)" class="st2 st3">0.0%</text>
			</g>
		</g>
		<g id="Table">
			<g>
				<g>
					<text id="TSVG_Table_Size_percentages_17_" transform="matrix(1 0 0 1 210.9346 57.9)" class="st2 st3">Tabel size</text>
					<text id="SVG_Table_Size_percentages" data-rounding="0" data-suffix="%"  transform="matrix(1 0 0 1 309.9346 57.9)" class="st2 st3">0.0%</text>
				</g>
				<g>
					<text id="SVG_Diameter_mm" data-rounding="2" data-suffix="mm"  transform="matrix(1 0 0 1 294.6702 29.5)" class="st2 st3">0.00mm</text>
					<text id="TSVG_Diameter_mm_16_" transform="matrix(1 0 0 1 204.1191 29.5)" class="st2 st3">Diameter</text>
				</g>
			</g>
		</g>
		<g id="Crown_6_">
			<g>
				<text id="TSVG_Crown_height-percentages_19_" transform="matrix(1 0 0 1 415.1987 85.7998)" class="st2 st3">Crown Angle</text>
			</g>
		</g>
		<g id="TSVG_Crown_angel-deg_1_">
			<g>
				<text id="SVG_Pavilion_angel-deg" data-rounding="1" data-suffix="째"  transform="matrix(1 0 0 1 463.9378 247.3002)" class="st2 st3">0.0째</text>
			</g>
		</g>
		<g id="Crown_9_">
			<g>
				<text transform="matrix(1 0 0 1 441.0456 210.9495)" class="st2 st3">Pavilion </text>
				<text transform="matrix(1 0 0 1 443.0456 224.9495)" class="st2 st3"> Angle</text>
			</g>
		</g>
	</g>
	<g id="Round">
		<g>
			<line class="st4" x1="465.7" y1="159.9" x2="465.7" y2="144.6"/>
			<line class="st4" x1="181" y1="84.1" x2="385.5" y2="84.1"/>
			<line class="st4" x1="465.3" y1="144.6" x2="385.5" y2="84.1"/>
			<line class="st4" x1="288.8" y1="316.2" x2="465.7" y2="159.9"/>
			<line class="st4" x1="181" y1="84.1" x2="99.9" y2="144.6"/>
			<line class="st4" x1="99.5" y1="156.8" x2="99.5" y2="144.6"/>
			<line class="st4" x1="288.8" y1="316.2" x2="99.5" y2="156.8"/>
			<line class="st4" x1="153.7" y1="104.5" x2="213.4" y2="84.1"/>
			<line class="st4" x1="288.2" y1="144.6" x2="213.4" y2="84.1"/>
			<line class="st4" x1="361.3" y1="85.1" x2="288.2" y2="144.6"/>
			<line class="st4" x1="408.8" y1="101.9" x2="361.3" y2="85.1"/>
			<line class="st4" x1="411.7" y1="104" x2="415.9" y2="141.7"/>
			<line class="st4" x1="341.5" y1="101.2" x2="415.9" y2="141.7"/>
			<line class="st4" x1="290.8" y1="84.1" x2="341.5" y2="101.2"/>
			<line class="st4" x1="236.7" y1="102.9" x2="290.8" y2="84.1"/>
			<line class="st4" x1="158.4" y1="144.6" x2="236.7" y2="102.9"/>
			<line class="st4" x1="220.3" y1="143.6" x2="236.7" y2="102.9"/>
			<line class="st4" x1="359.8" y1="143.4" x2="341.5" y2="101.2"/>
			<line class="st4" x1="158.4" y1="144.6" x2="155.8" y2="103.8"/>
			<line class="st4" x1="115.2" y1="146.2" x2="155.8" y2="103.8"/>
			<line class="st4" x1="118.7" y1="160.8" x2="247.4" y2="281.5"/>
			<line class="st4" x1="158.2" y1="157.8" x2="252.9" y2="286"/>
			<line class="st4" x1="220.3" y1="159.2" x2="288.5" y2="314.6"/>
			<line class="st4" x1="359.9" y1="158.4" x2="288.5" y2="314.6"/>
			<line class="st4" x1="417.8" y1="156.8" x2="302.5" y2="283.9"/>
			<line class="st4" x1="332.3" y1="277.7" x2="417.8" y2="156.8"/>
			<line class="st4" x1="452.4" y1="161.2" x2="345.2" y2="266.4"/>
			<line class="st4" x1="275.4" y1="284.8" x2="158.8" y2="158.5"/>
			<line class="st4" x1="289.3" y1="155.3" x2="275.3" y2="284"/>
			<line class="st4" x1="289.3" y1="155.3" x2="302.5" y2="283.9"/>
			<path class="st4" d="M115.2,146.2c14.1,4.5,29.4,3.9,43.2-1.6"/>
			<path class="st4" d="M158.4,144.5c20.3,5.8,41.8,5.4,61.9-1"/>
			<path class="st4" d="M220.3,143.5c9.7,2.1,19.5,3.3,29.4,3.7c12.8,0.5,25.7-0.4,38.3-2.6"/>
			<path class="st4" d="M288.2,144.5c12.1,3,24.5,4.4,36.9,4.1c11.7-0.3,23.4-2.1,34.7-5.3"/>
			<path class="st4" d="M359.8,143.3c18.5,4.9,38,4.3,56.2-1.6"/>
			<line class="st4" x1="417.3" y1="108.2" x2="451.3" y2="146"/>
			<path class="st4" d="M415.9,141.7c10.5,6.7,23.5,8.3,35.3,4.3"/>
			<path class="st4" d="M451.3,146c2.7,1.2,5.6,1.6,8.5,1c2-0.4,3.8-1.2,5.4-2.4"/>
			<path class="st4" d="M452.4,161.2c1.4-2.3,3.8-3.9,6.5-4.3c2.4-0.3,4.8,0.5,6.7,2"/>
			<path class="st4" d="M417.3,157.5c11.7-4.3,24.7-2.9,35.2,3.7"/>
			<path class="st4" d="M359.9,158.4c18.8-4.6,38.4-4.8,57.3-0.8"/>
			<path class="st4" d="M289.3,155.3c23.5-3.6,47.5-2.5,70.6,3"/>
			<path class="st4" d="M220.3,159.2c22.5-5.9,46-7.2,69-3.9"/>
			<path class="st4" d="M158.2,157.7c20.9-3.4,42.2-3,62.9,1.2"/>
			<path class="st4" d="M118.7,160.8c13.1-4.6,27.2-5.7,40.8-3.2"/>
			<path class="st4" d="M118.7,160.8c-1.8-1.9-4-3.4-6.5-4.3c-4.1-1.4-8.6-1.3-12.7,0.3"/>
			<path class="st4" d="M115.2,146.2c-2.4,1.8-5.5,2.6-8.5,2.2c-2.7-0.4-5.1-1.8-6.8-3.9"/>
		</g>
	</g>
</g>
<line class="st0" x1="538.5" y1="83.2" x2="542.8" y2="83.2"/>
</svg>
