<svg id="Layer_1" data-name="Layer 1" xmlns="http://www.w3.org/2000/svg" viewBox="0 0 538.5 310">
  <defs>
    <style>
      .cls-1, .cls-3 {
        fill: none;
        stroke-width: 2px;
      }

      .cls-1 {
        stroke: #020202;
        stroke-miterlimit: 10;
      }

      .cls-2 {
        isolation: isolate;
        font-size: 16px;
        font-family: ArialMT, Arial;
      }

      .cls-3 {
        stroke: #231f20;
        stroke-linecap: round;
        stroke-linejoin: round;
      }
    </style>
  </defs>
  <title>Asscher</title>
  <g id="lines">
    <line class="cls-1" x1="157.8" y1="48.9" x2="377.3" y2="48.9"/>
    <line class="cls-1" x1="157.8" y1="46.7" x2="157.8" y2="51"/>
    <line class="cls-1" x1="377.8" y1="46.5" x2="377.8" y2="51.2"/>
    <g>
      <line class="cls-1" x1="86.5" y1="21" x2="445" y2="21"/>
      <line class="cls-1" x1="445.2" y1="17" x2="445.2" y2="24.6"/>
      <line class="cls-1" x1="86.4" y1="17" x2="86.4" y2="24.5"/>
    </g>
    <g>
      <line class="cls-1" x1="75.1" y1="65.8" x2="75.1" y2="284.5"/>
      <line class="cls-1" x1="73" y1="65.8" x2="77" y2="65.8"/>
      <line class="cls-1" x1="72.9" y1="284.7" x2="77" y2="284.7"/>
    </g>
    <g>
      <line class="cls-1" x1="470.8" y1="64" x2="470.8" y2="116"/>
      <line class="cls-1" x1="468.7" y1="64" x2="472.7" y2="64"/>
      <line class="cls-1" x1="468.6" y1="116" x2="472.7" y2="116"/>
    </g>
    <g>
      <line class="cls-1" x1="470.9" y1="124.4" x2="470.9" y2="284.7"/>
      <line class="cls-1" x1="468.8" y1="124" x2="472.8" y2="124"/>
      <line class="cls-1" x1="468.7" y1="284.9" x2="472.8" y2="284.9"/>
    </g>
    <g>
      <line class="cls-1" x1="441.7" y1="100" x2="462.5" y2="115.1"/>
      <line class="cls-1" x1="456.8" y1="115.1" x2="462.5" y2="115.1"/>
    </g>
    <line class="cls-1" x1="69.7" y1="112.6" x2="75" y2="116.2"/>
    <line class="cls-1" x1="70.7" y1="129.3" x2="75.5" y2="124.7"/>
    <g>
      <line class="cls-1" x1="441.7" y1="142.9" x2="462.5" y2="124.9"/>
      <line class="cls-1" x1="456.8" y1="124.9" x2="462.5" y2="124.9"/>
    </g>
  </g>
  <g id="text">
    <text class="cls-2" id="SVG_Culet_Size_percentages" data-rounding="1"  data-suffix="%" transform="translate(246.1 304.8)">0.00%</text>
    <text class="cls-2" id="SVG_Crown_angel-deg" data-rounding="1"  data-suffix="째" transform="translate(421.6 74.4)">00.0째</text>
    <text class="cls-2" id="SVG_Pavilion_angel-deg" data-rounding="1"  data-suffix="째" transform="translate(421.6 184.7)">00.0째</text>
    <g id="Pavillion">
      <text class="cls-2" id="SVG_Pavilion_height-percentages" data-rounding="1"  data-suffix="%" transform="translate(480.7 235.7)">0.00%</text>
      <text class="cls-2" id="SVG_Pavilion_height-mm" data-rounding="2"  data-suffix="mm" transform="translate(480.7 205.3)">0.00mm</text>
    </g>
    <g id="Crown">
      <text class="cls-2" id="SVG_Crown_height-mm" data-rounding="2"  data-suffix="mm" transform="translate(480.7 84)">0.00mm</text>
      <text class="cls-2" id="SVG_Crown_height-percentages" data-rounding="1"  data-suffix="%" transform="translate(480.7 66.3)">0.00%</text>
    </g>
    <g id="Total">
      <text class="cls-2" id="SVG_Total_Depth_mm" data-rounding="2"  data-suffix="mm" transform="translate(0.2 281.9)">0.00mm</text>
      <text class="cls-2" id="SVG_Total_Depth_percentages" data-rounding="1"  data-suffix="%"  transform="translate(0.2 257.6)">0.0%</text>
    </g>
    <g id="Girdle">
      <text class="cls-2" id="SVG_Girdle_Thickness-mm" data-rounding="2"  data-suffix="mm" transform="translate(0 147.6)">0.00mm</text>
      <text class="cls-2" id="SVG_Girdle_Thickness-percentages" data-rounding="1"  data-suffix="%" transform="translate(12.4 108.5)">0.00%</text>
    </g>
    <g id="Table">
      <text class="cls-2" id="SVG_Table_Size_percentages" data-rounding="0"  data-suffix="%" transform="translate(246.1 42.1)">0.00%</text>
      <text class="cls-2" id="SVG_Length_mm" data-rounding="2"  data-suffix="mm" transform="translate(239.9 13.7)">0.00mm</text>
    </g>
  </g>
  <g id="asscher">
    <g>
      <polygon class="cls-3" points="256.8 284.7 279.5 284.7 334.2 246 394.3 197.4 449.9 124.3 449.9 116.1 412.9 85.9 378.3 63.7 157.7 63.7 122.4 86.1 86.4 116.1 86.4 124.3 141.2 197.4 200.8 245.5 256.8 284.7"/>
      <line class="cls-3" x1="200.8" y1="245.5" x2="334.2" y2="245.5"/>
      <line class="cls-3" x1="141.2" y1="197.4" x2="395" y2="197.4"/>
      <line class="cls-3" x1="86.4" y1="124.3" x2="449.9" y2="124.3"/>
      <line class="cls-3" x1="449.9" y1="116.1" x2="86.4" y2="116.1"/>
      <line class="cls-3" x1="122.4" y1="86.1" x2="412.9" y2="86.1"/>
      <line class="cls-3" x1="141" y1="74.5" x2="394.8" y2="74.5"/>
      <polyline class="cls-3" points="190.1 64 180.3 74.6 171.8 86.1 156 115.7 156 123.8 191.8 197.6 221.8 246 256.8 284.7"/>
      <polyline class="cls-3" points="347.3 64 357.1 74.6 365.7 86.1 381.4 115.7 381.4 123.8 345.6 197.6 315.7 246 279.5 284.7"/>
    </g>
  </g>
</svg>
