<svg id="Layer_1" data-name="Layer 1" xmlns="http://www.w3.org/2000/svg" viewBox="0 0 538.5 323.6">
  <defs>
    <style>
      .cls-1, .cls-3 {
        fill: none;
        stroke-miterlimit: 10;
        stroke-width: 2px;
      }

      .cls-1 {
        stroke: #020202;
      }

      .cls-2 {
        isolation: isolate;
        font-size: 16px;
        font-family: ArialMT, Arial;
      }

      .cls-3 {
        stroke: #000;
        stroke-linecap: round;
      }
    </style>
  </defs>
  <title>Round</title>
  <g id="lines">
    <line class="cls-1" x1="164.5" y1="46" x2="368.5" y2="46"/>
    <line class="cls-1" x1="164.5" y1="44" x2="164.5" y2="47.9"/>
    <line class="cls-1" x1="369" y1="43.8" x2="369" y2="48.1"/>
    <g>
      <line class="cls-1" x1="86.5" y1="20.7" x2="445" y2="20.7"/>
      <line class="cls-1" x1="445.2" y1="17" x2="445.2" y2="23.9"/>
      <line class="cls-1" x1="86.4" y1="17" x2="86.4" y2="23.8"/>
    </g>
    <g>
      <line class="cls-1" x1="75.1" y1="59.3" x2="75.1" y2="291"/>
      <line class="cls-1" x1="73" y1="59.3" x2="77" y2="59.3"/>
      <line class="cls-1" x1="72.9" y1="291.2" x2="77" y2="291.2"/>
    </g>
    <g>
      <line class="cls-1" x1="470.8" y1="58.3" x2="470.8" y2="119.4"/>
      <line class="cls-1" x1="468.6" y1="58.3" x2="472.8" y2="58.3"/>
      <line class="cls-1" x1="468.5" y1="119.4" x2="472.8" y2="119.4"/>
    </g>
    <g>
      <line class="cls-1" x1="470.9" y1="133.3" x2="470.9" y2="291.3"/>
      <line class="cls-1" x1="468.9" y1="133" x2="472.7" y2="133"/>
      <line class="cls-1" x1="468.8" y1="291.4" x2="472.7" y2="291.4"/>
    </g>
    <g>
      <line class="cls-1" x1="441.7" y1="105.6" x2="462.5" y2="119.4"/>
      <line class="cls-1" x1="456.8" y1="119.4" x2="462.5" y2="119.4"/>
    </g>
    <line class="cls-1" x1="69.7" y1="115.6" x2="75" y2="118.9"/>
    <line class="cls-1" x1="70.7" y1="134.3" x2="75.5" y2="130.1"/>
    <g>
      <line class="cls-1" x1="441.7" y1="149.3" x2="462.5" y2="133"/>
      <line class="cls-1" x1="456.8" y1="133" x2="462.5" y2="133"/>
    </g>
  </g>
  <g id="text">
    <text class="cls-2" id="SVG_Culet_Size_percentages" data-rounding="1"  data-suffix="%" transform="translate(246.1 318.4)">0.0%</text>
    <text class="cls-2" id="SVG_Crown_angel-deg" data-rounding="1"  data-suffix="째" transform="translate(421.6 74.4)">0.0째</text>
    <text class="cls-2" id="SVG_Pavilion_angel-deg" data-rounding="1"  data-suffix="째" transform="translate(421.6 184.7)">0.0째</text>
    <g id="Pavillion">
      <text class="cls-2" id="SVG_Pavilion_height-percentages" data-rounding="1"  data-suffix="%" transform="translate(480.7 235.7)">0.0%</text>
      <text class="cls-2" id="SVG_Pavilion_height-mm" data-rounding="2"  data-suffix="mm" transform="translate(480.7 205.3)">0.00mm</text>
    </g>
    <g id="Crown">
      <text class="cls-2" id="SVG_Crown_height-mm" data-rounding="2"  data-suffix="mm" transform="translate(479.7 84)">0.00mm</text>
      <text class="cls-2" id="SVG_Crown_height-percentages" data-rounding="1"  data-suffix="%" transform="translate(479.7 66.3)">0.0%</text>
    </g>
    <g id="Total">
      <text class="cls-2" id="SVG_Total_Depth_mm" data-rounding="2"  data-suffix="mm" transform="translate(0 281.9)">0.0%</text>
      <text class="cls-2" id="SVG_Total_Depth_percentages" data-rounding="1" data-suffix="%" transform="translate(0 257.6)">0.00mm</text>
    </g>
    <g id="Girdle">
      <text class="cls-2" id="SVG_Girdle_Thickness-mm" data-rounding="2"  data-suffix="mm" transform="translate(0 147.6)">0.00mm</text>
      <text class="cls-2" id="SVG_Girdle_Thickness-percentages" data-rounding="1"  data-suffix="%" transform="translate(0 108.5)">0.0%</text>
    </g>
    <g id="Table">
      <text class="cls-2" id="SVG_Table_Size_percentages" data-rounding="0"  data-suffix="%" transform="translate(245.1 42.1)">0.0%</text>
      <text class="cls-2" id="SVG_Diameter_mm" data-rounding="2"  data-suffix="mm" transform="translate(238.8 13.7)">0.00mm</text>
    </g>
  </g>
  <g id="Round">
    <g>
      <line class="cls-3" x1="449.1" y1="134.1" x2="449.1" y2="118.8"/>
      <line class="cls-3" x1="164.5" y1="58.3" x2="369" y2="58.3"/>
      <line class="cls-3" x1="448.7" y1="118.8" x2="369" y2="58.3"/>
      <line class="cls-3" x1="272.2" y1="290.4" x2="449.1" y2="134.1"/>
      <line class="cls-3" x1="164.5" y1="58.3" x2="83.4" y2="118.8"/>
      <line class="cls-3" x1="83" y1="131" x2="83" y2="118.8"/>
      <line class="cls-3" x1="272.2" y1="290.4" x2="83" y2="131"/>
      <line class="cls-3" x1="137.2" y1="78.7" x2="196.9" y2="58.3"/>
      <line class="cls-3" x1="271.6" y1="118.8" x2="196.9" y2="58.3"/>
      <line class="cls-3" x1="344.8" y1="59.3" x2="271.6" y2="118.8"/>
      <line class="cls-3" x1="392.3" y1="76.1" x2="344.8" y2="59.3"/>
      <line class="cls-3" x1="395.1" y1="78.2" x2="399.4" y2="115.9"/>
      <line class="cls-3" x1="325" y1="75.4" x2="399.4" y2="115.9"/>
      <line class="cls-3" x1="274.2" y1="58.3" x2="325" y2="75.4"/>
      <line class="cls-3" x1="220.1" y1="77.1" x2="274.2" y2="58.3"/>
      <line class="cls-3" x1="141.9" y1="118.8" x2="220.1" y2="77.1"/>
      <line class="cls-3" x1="203.8" y1="117.8" x2="220.1" y2="77.1"/>
      <line class="cls-3" x1="343.2" y1="117.6" x2="325" y2="75.4"/>
      <line class="cls-3" x1="141.9" y1="118.8" x2="139.3" y2="78"/>
      <line class="cls-3" x1="98.7" y1="120.4" x2="139.3" y2="78"/>
      <line class="cls-3" x1="102.2" y1="135" x2="230.9" y2="255.7"/>
      <line class="cls-3" x1="141.7" y1="132" x2="236.3" y2="260.2"/>
      <line class="cls-3" x1="203.8" y1="133.4" x2="272" y2="288.8"/>
      <line class="cls-3" x1="343.4" y1="132.6" x2="272" y2="288.8"/>
      <line class="cls-3" x1="401.2" y1="131" x2="286" y2="258.1"/>
      <line class="cls-3" x1="315.8" y1="251.9" x2="401.2" y2="131"/>
      <line class="cls-3" x1="435.9" y1="135.4" x2="328.6" y2="240.6"/>
      <line class="cls-3" x1="258.9" y1="259" x2="142.3" y2="132.7"/>
      <line class="cls-3" x1="272.8" y1="129.5" x2="258.8" y2="258.2"/>
      <line class="cls-3" x1="272.8" y1="129.5" x2="286" y2="258.1"/>
      <path class="cls-3" d="M98.7,120.4a64,64,0,0,0,43.2-1.6" transform="translate(0 0)"/>
      <path class="cls-3" d="M141.9,118.7a107.3,107.3,0,0,0,61.9-1" transform="translate(0 0)"/>
      <path class="cls-3" d="M203.8,117.7a177.3,177.3,0,0,0,29.4,3.7,177.5,177.5,0,0,0,38.3-2.6" transform="translate(0 0)"/>
      <path class="cls-3" d="M271.6,118.7a139.1,139.1,0,0,0,36.9,4.1,139.1,139.1,0,0,0,34.7-5.3" transform="translate(0 0)"/>
      <path class="cls-3" d="M343.2,117.5a99.4,99.4,0,0,0,56.2-1.6" transform="translate(0 0)"/>
      <line class="cls-3" x1="400.7" y1="82.4" x2="434.7" y2="120.2"/>
      <path class="cls-3" d="M399.4,115.9a41.1,41.1,0,0,0,35.3,4.3" transform="translate(0 0)"/>
      <path class="cls-3" d="M434.7,120.2a14.1,14.1,0,0,0,8.5,1,13.7,13.7,0,0,0,5.4-2.4" transform="translate(0 0)"/>
      <path class="cls-3" d="M435.9,135.4a9.1,9.1,0,0,1,6.5-4.3,9,9,0,0,1,6.7,2" transform="translate(0 0)"/>
      <path class="cls-3" d="M400.7,131.7a40.2,40.2,0,0,1,35.2,3.7" transform="translate(0 0)"/>
      <path class="cls-3" d="M343.4,132.6a128.7,128.7,0,0,1,57.3-.8" transform="translate(0 0)"/>
      <path class="cls-3" d="M272.8,129.5a184.2,184.2,0,0,1,70.6,3" transform="translate(0 0)"/>
      <path class="cls-3" d="M203.8,133.4a174.9,174.9,0,0,1,69-3.9" transform="translate(0 0)"/>
      <path class="cls-3" d="M141.7,131.9a173.1,173.1,0,0,1,62.9,1.2" transform="translate(0 0)"/>
      <path class="cls-3" d="M102.2,135a79.1,79.1,0,0,1,40.8-3.2" transform="translate(0 0)"/>
      <path class="cls-3" d="M102.2,135a17.3,17.3,0,0,0-6.5-4.3A18.2,18.2,0,0,0,83,131" transform="translate(0 0)"/>
      <path class="cls-3" d="M98.7,120.4a11.4,11.4,0,0,1-8.5,2.2,11.2,11.2,0,0,1-6.8-3.9" transform="translate(0 0)"/>
    </g>
  </g>
</svg>
