<svg xmlns="http://www.w3.org/2000/svg" viewBox="0 0 538.5 323.6">
  <defs>
    <style>
      .cls-1, .cls-3 {
        fill: none;
        stroke-miterlimit: 10;
        stroke-width: 2px;
      }

      .cls-1 {
        stroke: #020202;
      }

      .cls-2 {
        font-size: 16px;
        font-family: ArialMT, Arial;
      }

      .cls-3 {
        stroke: #000;
      }
    </style>
  </defs>
  <title>Asscher_b</title>
  <g id="lines">
    <line class="cls-1" x1="168.6" y1="48.9" x2="364.4" y2="48.9"/>
    <line class="cls-1" x1="168.6" y1="46.7" x2="168.6" y2="51"/>
    <line class="cls-1" x1="364.9" y1="46.5" x2="364.9" y2="51.2"/>
    <g>
      <line class="cls-1" x1="86.5" y1="21" x2="445" y2="21"/>
      <line class="cls-1" x1="445.2" y1="17" x2="445.2" y2="24.6"/>
      <line class="cls-1" x1="86.4" y1="17" x2="86.4" y2="24.5"/>
    </g>
    <g>
      <line class="cls-1" x1="75.1" y1="54.7" x2="75.1" y2="318.4"/>
      <line class="cls-1" x1="73" y1="54.7" x2="77" y2="54.7"/>
      <line class="cls-1" x1="72.9" y1="318.7" x2="77" y2="318.7"/>
    </g>
    <g>
      <line class="cls-1" x1="470.8" y1="54.7" x2="470.8" y2="106.8"/>
      <line class="cls-1" x1="468.7" y1="54.7" x2="472.7" y2="54.7"/>
      <line class="cls-1" x1="468.6" y1="106.8" x2="472.7" y2="106.8"/>
    </g>
    <g>
      <line class="cls-1" x1="470.9" y1="141.9" x2="470.9" y2="318.7"/>
      <line class="cls-1" x1="468.8" y1="141.5" x2="472.8" y2="141.5"/>
      <line class="cls-1" x1="468.7" y1="318.9" x2="472.8" y2="318.9"/>
    </g>
    <g>
      <line class="cls-1" x1="441.7" y1="91.8" x2="462.5" y2="106.9"/>
      <line class="cls-1" x1="456.8" y1="106.9" x2="462.5" y2="106.9"/>
    </g>
    <line class="cls-1" x1="69.7" y1="102.8" x2="75" y2="106.5"/>
    <line class="cls-1" x1="70.7" y1="146.6" x2="75.5" y2="142"/>
    <g>
      <line class="cls-1" x1="441.7" y1="160.1" x2="462.5" y2="142.2"/>
      <line class="cls-1" x1="456.8" y1="142.2" x2="462.5" y2="142.2"/>
    </g>
  </g>
  <g id="text">
    <text class="cls-2" id="SVG_culet_mm" transform="translate(246.1 318.4)">0.0%</text>
    <text class="cls-2" id="SVG_crown_rounded" transform="translate(421.6 74.4)">0.0°</text>
    <text class="cls-2" id="SVG_pavillion_rounded" transform="translate(421.6 184.7)">0.0°</text>
    <g id="Pavillion">
      <text class="cls-2" id="SVG_pavillion_pre" transform="translate(480.7 235.7)">0.0%</text>
      <text class="cls-2" id="SVG_pavillion_mm" transform="translate(480.7 205.3)">0.00mm</text>
    </g>
    <g id="Crown">
      <text class="cls-2" id="SVG_crown_mm" transform="translate(479.7 84)">0.00mm</text>
      <text class="cls-2" id="SVG_crown_pre" transform="translate(479.7 66.3)">0.0%</text>
    </g>
    <g id="Total">
      <text class="cls-2" id="SVG_total_depth_per" transform="translate(0 281.9)">0.0%</text>
      <text class="cls-2" id="SVG_total_depth_mm" transform="translate(0 257.6)">0.00mm</text>
    </g>
    <g id="Girdle">
      <text class="cls-2" id="SVG_girdle_mm" transform="translate(0 147.6)">0.00mm</text>
      <text class="cls-2" id="SVG_girdle_pre" transform="translate(0 108.5)">0.0%</text>
    </g>
    <g id="Table">
      <text class="cls-2" id="SVG_table_pre" transform="translate(245.1 42.1)">0.0%</text>
      <text class="cls-2" id="SVG_width_mm" transform="translate(238.8 13.7)">0.00mm</text>
    </g>
  </g>
  <g id="octagon">
    <g>
      <line class="cls-3" x1="184.5" y1="54.7" x2="358.7" y2="54.7"/>
      <line class="cls-3" x1="143.4" y1="70.9" x2="185.3" y2="54.4"/>
      <line class="cls-3" x1="103.8" y1="113" x2="144.3" y2="70.5"/>
      <line class="cls-3" x1="103" y1="108.9" x2="144.3" y2="70.5"/>
      <line class="cls-3" x1="103.5" y1="133.5" x2="103.5" y2="108.1"/>
      <line class="cls-3" x1="103.8" y1="113" x2="181" y2="70.5"/>
      <line class="cls-3" x1="184.5" y1="54.7" x2="181" y2="70.5"/>
      <line class="cls-3" x1="235.8" y1="54.7" x2="181" y2="70.5"/>
      <line class="cls-3" x1="308.1" y1="54.7" x2="272.3" y2="70.5"/>
      <line class="cls-3" x1="358.7" y1="54.7" x2="361.9" y2="70.2"/>
      <line class="cls-3" x1="399.5" y1="70.7" x2="357.9" y2="54.4"/>
      <line class="cls-3" x1="439.6" y1="108.9" x2="398.8" y2="70.4"/>
      <line class="cls-3" x1="439.4" y1="112.7" x2="400.4" y2="71.9"/>
      <line class="cls-3" x1="439.6" y1="108.3" x2="439.6" y2="133.5"/>
      <line class="cls-3" x1="361.9" y1="70.2" x2="439" y2="113.2"/>
      <line class="cls-3" x1="308.1" y1="54.7" x2="361.9" y2="70.2"/>
      <line class="cls-3" x1="341.3" y1="113.4" x2="361.9" y2="70.2"/>
      <line class="cls-3" x1="391" y1="108.9" x2="361.9" y2="70.2"/>
      <line class="cls-3" x1="439" y1="113.2" x2="390.4" y2="108.9"/>
      <line class="cls-3" x1="341.3" y1="113.4" x2="390.4" y2="108.9"/>
      <line class="cls-3" x1="272.3" y1="70.5" x2="341.3" y2="113.4"/>
      <line class="cls-3" x1="235.8" y1="54.7" x2="271.6" y2="70.7"/>
      <line class="cls-3" x1="202" y1="113.4" x2="271.6" y2="70.7"/>
      <line class="cls-3" x1="181.8" y1="70.3" x2="202" y2="113.4"/>
      <line class="cls-3" x1="152.3" y1="109.5" x2="181.8" y2="70.3"/>
      <line class="cls-3" x1="103.8" y1="113" x2="152.3" y2="109.5"/>
      <line class="cls-3" x1="202" y1="113.4" x2="152.3" y2="109.5"/>
      <line class="cls-3" x1="271.6" y1="70.7" x2="271.6" y2="108.5"/>
      <line class="cls-3" x1="202" y1="113.4" x2="271.6" y2="108.5"/>
      <line class="cls-3" x1="341.4" y1="114.1" x2="271.6" y2="108.5"/>
      <line class="cls-3" x1="341" y1="120.9" x2="341.3" y2="113.4"/>
      <line class="cls-3" x1="439.6" y1="120.9" x2="390.8" y2="132.9"/>
      <line class="cls-3" x1="341" y1="120.9" x2="390.8" y2="132.9"/>
      <line class="cls-3" x1="271.6" y1="132.9" x2="341" y2="120.9"/>
      <line class="cls-3" x1="201.8" y1="121.2" x2="271.6" y2="132.9"/>
      <line class="cls-3" x1="202" y1="113.4" x2="202" y2="121.2"/>
      <line class="cls-3" x1="152.7" y1="132.6" x2="202" y2="121.2"/>
      <line class="cls-3" x1="104.1" y1="121.2" x2="152.7" y2="132.6"/>
      <line class="cls-3" x1="103.5" y1="132.6" x2="271.1" y2="270.1"/>
      <line class="cls-3" x1="439.6" y1="132.9" x2="270.5" y2="270.6"/>
      <line class="cls-3" x1="438.1" y1="121.2" x2="346" y2="209.1"/>
      <line class="cls-3" x1="390.8" y1="132.9" x2="278.8" y2="263.7"/>
      <line class="cls-3" x1="415.2" y1="143.1" x2="300.8" y2="238.1"/>
      <line class="cls-3" x1="341" y1="120.9" x2="300.8" y2="238.1"/>
      <line class="cls-3" x1="271.6" y1="132.9" x2="271.1" y2="270.1"/>
      <line class="cls-3" x1="271.2" y1="237.6" x2="340.2" y2="121.8"/>
      <line class="cls-3" x1="201.8" y1="121.2" x2="270.9" y2="237.1"/>
      <line class="cls-3" x1="243.5" y1="238" x2="202" y2="121.2"/>
      <line class="cls-3" x1="152.7" y1="132.6" x2="271.1" y2="270.1"/>
      <line class="cls-3" x1="104.1" y1="121.2" x2="243.5" y2="238"/>
      <line class="cls-3" x1="197.5" y1="209.7" x2="106.3" y2="121.7"/>
    </g>
  </g>
</svg>
