<svg id="Layer_1" data-name="Layer 1" xmlns="http://www.w3.org/2000/svg" viewBox="0 0 538.5 311.1">
  <defs>
    <style>
      .cls-1, .cls-3, .cls-4 {
        fill: none;
        stroke-width: 2px;
      }

      .cls-1 {
        stroke: #020202;
        stroke-miterlimit: 10;
      }

      .cls-2 {
        isolation: isolate;
        font-size: 16px;
        font-family: ArialMT, Arial;
      }

      .cls-3, .cls-4 {
        stroke: #231f20;
        stroke-linejoin: round;
      }

      .cls-4 {
        stroke-linecap: round;
      }
    </style>
  </defs>
  <title>Heart</title>
  <g id="lines">
    <line class="cls-1" x1="142.2" y1="48.9" x2="355.2" y2="48.9"/>
    <line class="cls-1" x1="142.2" y1="46.3" x2="142.2" y2="51.4"/>
    <line class="cls-1" x1="355.7" y1="46.1" x2="355.7" y2="51.5"/>
    <g>
      <line class="cls-1" x1="86.5" y1="21" x2="445" y2="21"/>
      <line class="cls-1" x1="445.2" y1="17" x2="445.2" y2="24.6"/>
      <line class="cls-1" x1="86.4" y1="17" x2="86.4" y2="24.5"/>
    </g>
    <g>
      <line class="cls-1" x1="75.1" y1="59.4" x2="75.1" y2="285.1"/>
      <line class="cls-1" x1="73" y1="59.4" x2="77" y2="59.4"/>
      <line class="cls-1" x1="72.9" y1="285.3" x2="77" y2="285.3"/>
    </g>
    <g>
      <line class="cls-1" x1="470.8" y1="59.4" x2="470.8" y2="116.9"/>
      <line class="cls-1" x1="468.9" y1="59.4" x2="472.5" y2="59.4"/>
      <line class="cls-1" x1="468.8" y1="116.9" x2="472.5" y2="116.9"/>
    </g>
    <g>
      <line class="cls-1" x1="470.9" y1="126.9" x2="470.9" y2="284.9"/>
      <line class="cls-1" x1="468.8" y1="126.5" x2="472.9" y2="126.5"/>
      <line class="cls-1" x1="468.7" y1="285" x2="472.9" y2="285"/>
    </g>
    <g>
      <line class="cls-1" x1="444.7" y1="101.8" x2="465.5" y2="116.9"/>
      <line class="cls-1" x1="459.8" y1="116.9" x2="465.5" y2="116.9"/>
    </g>
    <line class="cls-1" x1="70" y1="110.7" x2="75.3" y2="114.3"/>
    <line class="cls-1" x1="70.3" y1="128.1" x2="75.1" y2="123.5"/>
    <g>
      <line class="cls-1" x1="444.7" y1="144.4" x2="465.5" y2="126.5"/>
      <line class="cls-1" x1="459.8" y1="126.5" x2="465.5" y2="126.5"/>
    </g>
  </g>
  <g id="text">
    <text class="cls-2" transform="translate(246.1 305.9)">0.0%</text>
    <text class="cls-2" transform="translate(421.6 74.4)">0.0°</text>
    <text class="cls-2" transform="translate(421.6 184.7)">0.0°</text>
    <g id="Pavillion">
      <text class="cls-2" transform="translate(480.7 284.9)">0.0%</text>
      <text class="cls-2" transform="translate(480.7 254.5)">0.00mm</text>
    </g>
    <g id="Crown">
      <text class="cls-2" transform="translate(479.7 84)">0.00mm</text>
      <text class="cls-2" transform="translate(479.7 66.3)">0.0%</text>
    </g>
    <g id="Total">
      <text class="cls-2" transform="translate(0 281.9)">0.0%</text>
      <text class="cls-2" transform="translate(0 257.6)">0.00mm</text>
    </g>
    <g id="Girdle">
      <text class="cls-2" transform="translate(0 147.6)">0.00mm</text>
      <text class="cls-2" transform="translate(0 108.5)">0.0%</text>
    </g>
    <g id="Table">
      <text class="cls-2" transform="translate(245.1 42.1)">0.0%</text>
      <text class="cls-2" transform="translate(238.8 13.7)">0.00mm</text>
    </g>
  </g>
  <g id="heart">
    <g>
      <polygon class="cls-3" points="224.1 286.8 281.4 248.7 451.3 126 451.3 117.3 414.7 80.7 355.2 58.6 141.9 58.6 111.6 78.8 81.7 113.9 81.7 125.5 183.8 255 224.1 286.8"/>
      <polygon class="cls-3" points="224.1 286.8 314.5 130.5 314.5 121.5 295.1 83.2 245.3 58.3 194.4 83.2 185.7 122.9 185.7 132.6 212 256.1 215.3 279.9 224.1 286.8"/>
      <polygon class="cls-3" points="111.6 78.8 170.9 58.9 194.4 83.2 125.8 123.2 111.6 78.8"/>
      <polyline class="cls-4" points="111.6 78.8 102.3 121.5 102.3 132.6 183.8 255 127.2 133 213.1 258.3 251 131.6 251 123.6 295.1 83.2 375.6 121 375.6 128.6 246.7 248.2"/>
      <polyline class="cls-4" points="81.7 113.9 102.3 121.5 125.8 123.2 185.7 122.9 251 123.6 314.5 121.5 375.6 121 419.9 118.9 451.3 117.3"/>
      <polyline class="cls-4" points="451.3 126 417.8 126.8 375.6 128.6 314.5 130.5 251 131.6 185.7 132.6 127.2 133 127.2 123.2"/>
      <polyline class="cls-4" points="81.7 125.5 102.3 132.6 127.2 133"/>
      <line class="cls-4" x1="194.4" y1="83.2" x2="251" y2="123.6"/>
      <polyline class="cls-4" points="295.1 83.2 322.8 59.4 413.5 80.6 419.9 118.9 419.9 126.1 283.9 246.3 375.6 128.6 375.6 121 413 81.4"/>
    </g>
  </g>
</svg>
