<?xml version="1.0" encoding="utf-8"?>
<!-- Generator: Adobe Illustrator 23.0.3, SVG Export Plug-In . SVG Version: 6.00 Build 0)  -->
<svg version="1.1" id="Layer_1" xmlns="http://www.w3.org/2000/svg" xmlns:xlink="http://www.w3.org/1999/xlink" x="0px" y="0px"
	 viewBox="0 0 576.4 327.8" style="enable-background:new 0 0 576.4 327.8;" xml:space="preserve">
<style type="text/css">
	.st0{fill:none;stroke:#020202;stroke-width:2;stroke-miterlimit:10;}
	.st1{font-family:'ArialMT';}
	.st2{font-size:14px;}
	.st3{enable-background:new    ;}
	.st4{font-size:16px;}
	.st5{fill:none;stroke:#000000;stroke-width:2;stroke-linecap:round;stroke-miterlimit:10;}
</style>
<title>Round</title>
<g id="lines">
	<line class="st0" x1="188.2" y1="50.2" x2="392.1" y2="50.2"/>
	<line class="st0" x1="188.2" y1="48.2" x2="188.2" y2="52.1"/>
	<line class="st0" x1="392.6" y1="48" x2="392.6" y2="52.3"/>
	<g>
		<line class="st0" x1="110.2" y1="24.9" x2="468.6" y2="24.9"/>
		<line class="st0" x1="468.9" y1="21.2" x2="468.9" y2="28.1"/>
		<line class="st0" x1="110.1" y1="21.2" x2="110.1" y2="28"/>
	</g>
	<g>
		<line class="st0" x1="98.8" y1="63.5" x2="98.8" y2="295.2"/>
		<line class="st0" x1="96.7" y1="63.5" x2="100.7" y2="63.5"/>
		<line class="st0" x1="96.6" y1="295.4" x2="100.7" y2="295.4"/>
	</g>
	<g>
		<line class="st0" x1="494.4" y1="62.5" x2="494.4" y2="123.6"/>
		<line class="st0" x1="492.3" y1="62.5" x2="496.4" y2="62.5"/>
		<line class="st0" x1="492.1" y1="123.6" x2="496.4" y2="123.6"/>
	</g>
	<g>
		<line class="st0" x1="494.5" y1="137.5" x2="494.5" y2="295.5"/>
		<line class="st0" x1="492.5" y1="137.2" x2="496.4" y2="137.2"/>
		<line class="st0" x1="492.4" y1="295.6" x2="496.4" y2="295.6"/>
	</g>
	<g>
		<line class="st0" x1="465.4" y1="109.8" x2="486.1" y2="123.6"/>
		<line class="st0" x1="480.4" y1="123.6" x2="486.1" y2="123.6"/>
	</g>
	<g>
		<line class="st0" x1="465.4" y1="153.5" x2="486.1" y2="137.2"/>
		<line class="st0" x1="480.4" y1="137.2" x2="486.1" y2="137.2"/>
	</g>
	<g>
		<line class="st0" x1="537.8" y1="131.2" x2="476.8" y2="131.2"/>
		<line class="st0" x1="537.8" y1="129" x2="537.8" y2="133.2"/>
		<line class="st0" x1="476.8" y1="128.9" x2="476.8" y2="133.2"/>
	</g>
</g>
<g id="text">
	<g>
		<text id="SVG_Culet_Size_percentages" data-rounding="1" data-suffix="%" transform="matrix(1 0 0 1 311.5014 315.6)" class="st1 st2">0.0%</text>
	</g>
	<text id="text_SVG_Culet_Size_percentages_1_" transform="matrix(1 0 0 1 244.0504 315.6)" class="st1 st2">Culet Size</text>
	<g>
		<text id="SVG_Crown_angel-deg" data-rounding="1"  data-suffix="째"  transform="matrix(1 0 0 1 442.1017 86.6001)" class="st1 st2">0.0째</text>
	</g>
	<g id="Crown">
		<text id="text_SVG_Crown_height-percentages_3" transform="matrix(1 0 0 1 504.1014 72.5)" class="st3"><tspan x="0" y="0" class="st1 st2">Crown</tspan><tspan x="0" y="14" class="st1 st2">Height</tspan></text>
	</g>
	<g id="Crown_4_">
		<text id="SVG_Crown_height-mm"  data-rounding="2"  data-suffix="mm"  transform="matrix(1 0 0 1 504.1014 120.6501)" class="st1 st2">0.00mm</text>
		<text  id="SVG_Crown_height-percentages"  data-rounding="1"  data-suffix="%"  transform="matrix(1 0 0 1 504.1014 102.9501)" class="st1 st2">0.0%</text>
	</g>
	<g id="Crown_3_">
		<text id="text_SVG_Crown_height-percentages_3_" transform="matrix(1 0 0 1 43.3015 72.5)" class="st3"><tspan x="0" y="0" class="st1 st2">Total</tspan><tspan x="0" y="14" class="st1 st2">Depht</tspan></text>
	</g>
	<g id="Crown_1_">
		<text id="SVG_Total_Depth_mm" data-rounding="2" data-suffix="mm" transform="matrix(1 0 0 1 43.3015 120.6501)" class="st1 st2">0.00mm</text>
		<text id="SVG_Total_Depth_percentages" data-rounding="1" data-suffix="%" transform="matrix(1 0 0 1 43.3015 102.9501)" class="st1 st2">0.0%</text>
	</g>
	<g id="Crown_5_">
		<text id="SVG_Girdle_Thickness-mm" data-rounding="2" data-suffix="mm"  transform="matrix(1 0 0 1 505.1014 195.5)" class="st1 st2">0.00mm</text>
		<text  id="SVG_Girdle_Thickness-percentages" data-rounding="1"  data-suffix="%" transform="matrix(1 0 0 1 505.1014 177.8)" class="st1 st2">0.0%</text>
	</g>
	<g id="Crown_2_">
		<text id="text_SVG_Crown_height-percentages_2_" transform="matrix(1 0 0 1 504.1014 147.1501)" class="st3"><tspan x="0" y="0" class="st1 st2">Girdle </tspan><tspan x="0" y="16.8" class="st1 st2">Thickness</tspan></text>
	</g>
	<g id="Crown_8_">
		<text id="SVG_Pavilion_height-mm" data-rounding="2" data-suffix="mm" transform="matrix(1 0 0 1 505.1014 294.1498)" class="st1 st2">0.00mm</text>
		<text id="SVG_Pavilion_height-percentages" data-rounding="1" data-suffix="%"  transform="matrix(1 0 0 1 505.1014 276.4498)" class="st1 st2">0.0%</text>
	</g>
	<g id="Crown_7_">
		<text id="text_SVG_Crown_height-percentages_7_" transform="matrix(1 0 0 1 504.1014 245.7999)" class="st3"><tspan x="0" y="0" class="st1 st2">Pavilion </tspan><tspan x="0" y="16.8" class="st1 st2">Depth</tspan></text>
	</g>
	<g id="Table">
		<g>
			<text id="text_SVG_Table_Size_percentages_1_" transform="matrix(1 0 0 1 231.4658 46.3)" class="st1 st4">Tabel size</text>
			<text id="SVG_Table_Size_percentages"  data-rounding="0"  data-suffix="%"  transform="matrix(1 0 0 1 308.4658 46.3)" class="st1 st4">0.0%</text>
		</g>
		<text id="SVG_Diameter_mm"  data-rounding="2"  data-suffix="mm"  transform="matrix(1 0 0 1 293.2014 17.9)" class="st1 st4">0.00mm</text>
		<text id="text_SVG_Diameter_mm_1_" transform="matrix(1 0 0 1 221.6503 17.9)" class="st1 st4">Diameter</text>
	</g>
	<g id="Crown_6_">
		<text id="text_SVG_Crown_height-percentages_6_" transform="matrix(1 0 0 1 410.5103 73.1998)" class="st1 st2">Crown Angle</text>
	</g>
	<g >
		<text  id="SVG_Pavilion_angel-deg" data-rounding="1"  data-suffix="째"  transform="matrix(1 0 0 1 454.3017 207.7002)" class="st1 st2">0.0째</text>
	</g>
	<g id="Crown_9_">
		<text id="text_SVG_Crown_height-percentages_9_" transform="matrix(1 0 0 1 443.4505 177.3495)" class="st3"><tspan x="0" y="0" class="st1 st2">Pavilion </tspan><tspan x="0" y="14" class="st1 st2"> Angle</tspan></text>
	</g>
</g>
<g id="Round">
	<g>
		<line class="st5" x1="471.3" y1="138.3" x2="471.3" y2="123"/>
		<line class="st5" x1="186.6" y1="62.5" x2="391.1" y2="62.5"/>
		<line class="st5" x1="470.9" y1="123" x2="391.1" y2="62.5"/>
		<line class="st5" x1="294.4" y1="294.6" x2="471.3" y2="138.3"/>
		<line class="st5" x1="186.6" y1="62.5" x2="105.5" y2="123"/>
		<line class="st5" x1="105.1" y1="135.2" x2="105.1" y2="123"/>
		<line class="st5" x1="294.4" y1="294.6" x2="105.1" y2="135.2"/>
		<line class="st5" x1="159.3" y1="82.9" x2="219" y2="62.5"/>
		<line class="st5" x1="293.8" y1="123" x2="219" y2="62.5"/>
		<line class="st5" x1="366.9" y1="63.5" x2="293.8" y2="123"/>
		<line class="st5" x1="414.4" y1="80.3" x2="366.9" y2="63.5"/>
		<line class="st5" x1="417.3" y1="82.4" x2="421.5" y2="120.1"/>
		<line class="st5" x1="347.1" y1="79.6" x2="421.5" y2="120.1"/>
		<line class="st5" x1="296.4" y1="62.5" x2="347.1" y2="79.6"/>
		<line class="st5" x1="242.3" y1="81.3" x2="296.4" y2="62.5"/>
		<line class="st5" x1="164" y1="123" x2="242.3" y2="81.3"/>
		<line class="st5" x1="225.9" y1="122" x2="242.3" y2="81.3"/>
		<line class="st5" x1="365.4" y1="121.8" x2="347.1" y2="79.6"/>
		<line class="st5" x1="164" y1="123" x2="161.4" y2="82.2"/>
		<line class="st5" x1="120.8" y1="124.6" x2="161.4" y2="82.2"/>
		<line class="st5" x1="124.3" y1="139.2" x2="253" y2="259.9"/>
		<line class="st5" x1="163.8" y1="136.2" x2="258.5" y2="264.4"/>
		<line class="st5" x1="225.9" y1="137.6" x2="294.1" y2="293"/>
		<line class="st5" x1="365.5" y1="136.8" x2="294.1" y2="293"/>
		<line class="st5" x1="423.4" y1="135.2" x2="308.1" y2="262.3"/>
		<line class="st5" x1="337.9" y1="256.1" x2="423.4" y2="135.2"/>
		<line class="st5" x1="458" y1="139.6" x2="350.8" y2="244.8"/>
		<line class="st5" x1="281" y1="263.2" x2="164.4" y2="136.9"/>
		<line class="st5" x1="294.9" y1="133.7" x2="280.9" y2="262.4"/>
		<line class="st5" x1="294.9" y1="133.7" x2="308.1" y2="262.3"/>
		<path class="st5" d="M120.8,124.6c14.1,4.5,29.4,3.9,43.2-1.6"/>
		<path class="st5" d="M164,122.9c20.3,5.8,41.8,5.4,61.9-1"/>
		<path class="st5" d="M225.9,121.9c9.7,2.1,19.5,3.3,29.4,3.7c12.8,0.5,25.7-0.4,38.3-2.6"/>
		<path class="st5" d="M293.8,122.9c12.1,3,24.5,4.4,36.9,4.1c11.7-0.3,23.4-2.1,34.7-5.3"/>
		<path class="st5" d="M365.4,121.7c18.5,4.9,38,4.3,56.2-1.6"/>
		<line class="st5" x1="422.9" y1="86.6" x2="456.9" y2="124.4"/>
		<path class="st5" d="M421.5,120.1c10.5,6.7,23.5,8.3,35.3,4.3"/>
		<path class="st5" d="M456.9,124.4c2.7,1.2,5.6,1.6,8.5,1c2-0.4,3.8-1.2,5.4-2.4"/>
		<path class="st5" d="M458,139.6c1.4-2.3,3.8-3.9,6.5-4.3c2.4-0.3,4.8,0.5,6.7,2"/>
		<path class="st5" d="M422.9,135.9c11.7-4.3,24.7-2.9,35.2,3.7"/>
		<path class="st5" d="M365.5,136.8c18.8-4.6,38.4-4.8,57.3-0.8"/>
		<path class="st5" d="M294.9,133.7c23.5-3.6,47.5-2.5,70.6,3"/>
		<path class="st5" d="M225.9,137.6c22.5-5.9,46-7.2,69-3.9"/>
		<path class="st5" d="M163.8,136.1c20.9-3.4,42.2-3,62.9,1.2"/>
		<path class="st5" d="M124.3,139.2c13.1-4.6,27.2-5.7,40.8-3.2"/>
		<path class="st5" d="M124.3,139.2c-1.8-1.9-4-3.4-6.5-4.3c-4.1-1.4-8.6-1.3-12.7,0.3"/>
		<path class="st5" d="M120.8,124.6c-2.4,1.8-5.5,2.6-8.5,2.2c-2.7-0.4-5.1-1.8-6.8-3.9"/>
	</g>
</g>
</svg>
